<mxfile host="app.diagrams.net" agent="Mozilla/5.0 (Windows NT 10.0; Win64; x64) AppleWebKit/537.36 (KHTML, like Gecko) Chrome/133.0.0.0 Safari/537.36" version="26.0.16">
  <diagram id="a45cf8ec-cd66-6f27-3ac3-be6e809c9e4a" name="Page-1">
    <mxGraphModel dx="3526" dy="6659" grid="1" gridSize="10" guides="1" tooltips="1" connect="1" arrows="1" fold="1" page="1" pageScale="1" pageWidth="827" pageHeight="1169" background="none" math="0" shadow="0">
      <root>
        <mxCell id="0" />
        <mxCell id="1" parent="0" />
        <mxCell id="UbUL-3o23nfrx7GC4o43-400" value="" style="ellipse;whiteSpace=wrap;html=1;" vertex="1" parent="1">
          <mxGeometry x="4830" y="-2530" width="2850" height="2280" as="geometry" />
        </mxCell>
        <mxCell id="UbUL-3o23nfrx7GC4o43-405" style="edgeStyle=none;shape=link;rounded=0;orthogonalLoop=1;jettySize=auto;html=1;exitX=1;exitY=0;exitDx=0;exitDy=0;" edge="1" parent="1" source="UbUL-3o23nfrx7GC4o43-327" target="UbUL-3o23nfrx7GC4o43-400">
          <mxGeometry relative="1" as="geometry" />
        </mxCell>
        <mxCell id="UbUL-3o23nfrx7GC4o43-406" style="edgeStyle=none;shape=link;rounded=0;orthogonalLoop=1;jettySize=auto;html=1;exitX=1;exitY=0.5;exitDx=0;exitDy=0;entryX=0;entryY=0.5;entryDx=0;entryDy=0;" edge="1" parent="1" source="UbUL-3o23nfrx7GC4o43-327" target="UbUL-3o23nfrx7GC4o43-328">
          <mxGeometry relative="1" as="geometry" />
        </mxCell>
        <mxCell id="UbUL-3o23nfrx7GC4o43-327" value="" style="ellipse;whiteSpace=wrap;html=1;" vertex="1" parent="1">
          <mxGeometry x="920" y="320" width="2980" height="2670" as="geometry" />
        </mxCell>
        <mxCell id="UbUL-3o23nfrx7GC4o43-403" style="edgeStyle=none;shape=link;rounded=0;orthogonalLoop=1;jettySize=auto;html=1;exitX=1;exitY=1;exitDx=0;exitDy=0;" edge="1" parent="1" source="UbUL-3o23nfrx7GC4o43-311" target="UbUL-3o23nfrx7GC4o43-328">
          <mxGeometry relative="1" as="geometry" />
        </mxCell>
        <mxCell id="UbUL-3o23nfrx7GC4o43-311" value="" style="ellipse;whiteSpace=wrap;html=1;" vertex="1" parent="1">
          <mxGeometry x="1064" y="-2780" width="3071.33" height="1890" as="geometry" />
        </mxCell>
        <mxCell id="3" value="" style="rounded=1;whiteSpace=wrap;html=1;shadow=0;strokeColor=none;fillColor=#BAC8D3;gradientColor=none;fontSize=18;fontColor=#F08705;opacity=40;fontStyle=0;strokeWidth=3;" parent="1" vertex="1">
          <mxGeometry x="-1177" y="450" width="1215" height="701" as="geometry" />
        </mxCell>
        <mxCell id="4" value="&lt;span&gt;Section 1&lt;/span&gt;" style="rounded=1;whiteSpace=wrap;html=1;shadow=0;strokeColor=none;fillColor=#BAC8D3;gradientColor=none;fontSize=18;fontColor=#AE4132;verticalAlign=top;opacity=70;fontStyle=0;strokeWidth=3;" parent="1" vertex="1">
          <mxGeometry x="-902" y="459" width="300" height="103" as="geometry" />
        </mxCell>
        <mxCell id="5" value="&lt;span style=&quot;line-height: 17.1818180084229px&quot;&gt;Section 3&lt;/span&gt;" style="rounded=1;whiteSpace=wrap;html=1;shadow=0;strokeColor=none;fillColor=#BAC8D3;gradientColor=none;fontSize=18;fontColor=#AE4132;verticalAlign=top;fontStyle=0;opacity=70;strokeWidth=3;" parent="1" vertex="1">
          <mxGeometry x="-907" y="649" width="300" height="105" as="geometry" />
        </mxCell>
        <mxCell id="6" value="&lt;span style=&quot;line-height: 17.1818180084229px&quot;&gt;Section 5&lt;/span&gt;" style="rounded=1;whiteSpace=wrap;html=1;shadow=0;strokeColor=none;fillColor=#BAC8D3;gradientColor=none;fontSize=18;fontColor=#AE4132;verticalAlign=top;fontStyle=0;opacity=70;strokeWidth=3;" parent="1" vertex="1">
          <mxGeometry x="-1077" y="829" width="295" height="115" as="geometry" />
        </mxCell>
        <mxCell id="7" value="Server Farm" style="rounded=1;whiteSpace=wrap;html=1;shadow=0;strokeColor=none;fillColor=#BAC8D3;gradientColor=none;fontSize=18;fontColor=#AE4132;verticalAlign=top;fontStyle=0;opacity=70;strokeWidth=3;" parent="1" vertex="1">
          <mxGeometry x="-762" y="819" width="270" height="120" as="geometry" />
        </mxCell>
        <mxCell id="8" value="Service Processing" style="rounded=1;whiteSpace=wrap;html=1;shadow=0;strokeColor=none;fillColor=#BAC8D3;gradientColor=none;fontSize=18;fontColor=#AE4132;verticalAlign=top;fontStyle=0;opacity=70;strokeWidth=3;" parent="1" vertex="1">
          <mxGeometry x="-472" y="819" width="280" height="130" as="geometry" />
        </mxCell>
        <mxCell id="9" value="&lt;span style=&quot;line-height: 17.1818180084229px&quot;&gt;Section 4&lt;/span&gt;&lt;br&gt;" style="rounded=1;whiteSpace=wrap;html=1;shadow=0;strokeColor=none;fillColor=#BAC8D3;gradientColor=none;fontSize=18;fontColor=#AE4132;verticalAlign=top;opacity=70;fontStyle=0;strokeWidth=3;" parent="1" vertex="1">
          <mxGeometry x="-492" y="649" width="300" height="105" as="geometry" />
        </mxCell>
        <mxCell id="10" value="&lt;span style=&quot;line-height: 17.1818180084229px&quot;&gt;Section 2&lt;/span&gt;&lt;br&gt;" style="rounded=1;whiteSpace=wrap;html=1;shadow=0;strokeColor=none;fillColor=#BAC8D3;gradientColor=none;fontSize=18;fontColor=#AE4132;verticalAlign=top;opacity=70;fontStyle=0;strokeWidth=3;" parent="1" vertex="1">
          <mxGeometry x="-492" y="459" width="300" height="108" as="geometry" />
        </mxCell>
        <mxCell id="11" value="Branch 4&lt;span style=&quot;line-height: 17.1818180084229px&quot;&gt;&amp;nbsp;(overseas)&lt;/span&gt;" style="rounded=1;whiteSpace=wrap;html=1;shadow=0;strokeColor=none;fillColor=#BAC8D3;gradientColor=none;fontSize=18;fontColor=#AE4132;fontStyle=0;verticalAlign=bottom;opacity=40;strokeWidth=3;" parent="1" vertex="1">
          <mxGeometry x="-311" y="1351" width="459" height="179" as="geometry" />
        </mxCell>
        <mxCell id="13" value="Contractors" style="rounded=1;whiteSpace=wrap;html=1;shadow=0;strokeColor=none;fillColor=#BAC8D3;gradientColor=none;fontSize=18;fontColor=#AE4132;verticalAlign=bottom;fontStyle=0;opacity=40;strokeWidth=3;" parent="1" vertex="1">
          <mxGeometry x="-622" y="1293" width="294" height="207" as="geometry" />
        </mxCell>
        <mxCell id="14" value="Branch 2" style="rounded=1;whiteSpace=wrap;html=1;shadow=0;strokeColor=none;fillColor=#BAC8D3;gradientColor=none;fontSize=18;fontColor=#AE4132;fontStyle=0;verticalAlign=bottom;opacity=40;strokeWidth=3;" parent="1" vertex="1">
          <mxGeometry x="-1055" y="1373" width="420" height="157" as="geometry" />
        </mxCell>
        <mxCell id="15" value="Branch 1" style="rounded=1;whiteSpace=wrap;html=1;shadow=0;strokeColor=none;fillColor=#BAC8D3;gradientColor=none;fontSize=18;fontColor=#AE4132;verticalAlign=bottom;fontStyle=0;opacity=40;strokeWidth=3;" parent="1" vertex="1">
          <mxGeometry x="-1149" y="1189" width="440" height="171" as="geometry" />
        </mxCell>
        <mxCell id="16" value="Consumers" style="rounded=1;whiteSpace=wrap;html=1;shadow=0;strokeColor=none;fillColor=#BAC8D3;gradientColor=none;fontSize=18;fontColor=#AE4132;verticalAlign=bottom;fontStyle=0;opacity=40;strokeWidth=3;" parent="1" vertex="1">
          <mxGeometry x="-1370" y="868" width="115" height="542" as="geometry" />
        </mxCell>
        <mxCell id="17" value="Cloud 3" style="ellipse;shape=cloud;whiteSpace=wrap;html=1;shadow=0;strokeColor=#23445D;fillColor=#BAC8D3;gradientColor=none;fontSize=18;fontColor=#23445D;gradientDirection=north;fontStyle=0;strokeWidth=2;" parent="1" vertex="1">
          <mxGeometry x="88" y="498" width="120" height="80" as="geometry" />
        </mxCell>
        <mxCell id="18" value="Cloud 4" style="ellipse;shape=cloud;whiteSpace=wrap;html=1;shadow=0;strokeColor=#23445D;fillColor=#BAC8D3;gradientColor=none;fontSize=18;fontColor=#23445D;gradientDirection=north;fontStyle=0;strokeWidth=2;" parent="1" vertex="1">
          <mxGeometry x="88" y="600" width="120" height="80" as="geometry" />
        </mxCell>
        <mxCell id="19" value="Internet" style="ellipse;shape=cloud;whiteSpace=wrap;html=1;shadow=0;strokeColor=#23445D;fillColor=#BAC8D3;gradientColor=none;fontSize=18;fontColor=#23445D;gradientDirection=north;fontStyle=0;strokeWidth=2;" parent="1" vertex="1">
          <mxGeometry x="-422" y="1170" width="120" height="80" as="geometry" />
        </mxCell>
        <mxCell id="20" value="" style="strokeWidth=2;strokeColor=#666666;dashed=0;align=center;html=1;fontSize=8;shape=mxgraph.eip.messageChannel;shadow=0;fillColor=#FFFFFF;gradientColor=none;fontColor=#F08705;fontStyle=0" parent="1" vertex="1">
          <mxGeometry x="-1032" y="610" width="440" height="20" as="geometry" />
        </mxCell>
        <mxCell id="21" value="" style="edgeStyle=elbowEdgeStyle;strokeWidth=2;rounded=0;endArrow=none;startArrow=none;startSize=10;endSize=10;dashed=0;html=1;strokeColor=#23445D;fontSize=18;fontColor=#F08705;startFill=0;endFill=0;fontStyle=0" parent="1" source="24" target="20" edge="1">
          <mxGeometry relative="1" as="geometry">
            <mxPoint x="-852" y="550" as="sourcePoint" />
            <mxPoint x="-852" y="610" as="targetPoint" />
          </mxGeometry>
        </mxCell>
        <mxCell id="22" value="" style="image;html=1;image=img/lib/clip_art/computers/Monitor_Tower_128x128.png;shadow=0;strokeColor=#000000;fillColor=#FFFFFF;gradientColor=none;fontSize=18;fontColor=#F08705;fontStyle=0" parent="1" vertex="1">
          <mxGeometry x="-1007" y="477" width="80" height="80" as="geometry" />
        </mxCell>
        <mxCell id="23" value="" style="image;html=1;image=img/lib/clip_art/networking/Bridge_128x128.png;shadow=0;strokeColor=#000000;fillColor=#FFFFFF;gradientColor=none;fontSize=18;fontColor=#F08705;fontStyle=0" parent="1" vertex="1">
          <mxGeometry x="-1122" y="477" width="80" height="80" as="geometry" />
        </mxCell>
        <mxCell id="24" value="" style="image;html=1;image=img/lib/clip_art/computers/Netbook_128x128.png;shadow=0;strokeColor=#000000;fillColor=#FFFFFF;gradientColor=none;fontSize=18;fontColor=#F08705;fontStyle=0" parent="1" vertex="1">
          <mxGeometry x="-892" y="477" width="80" height="80" as="geometry" />
        </mxCell>
        <mxCell id="25" value="" style="image;html=1;image=img/lib/clip_art/computers/Netbook_128x128.png;shadow=0;strokeColor=#000000;fillColor=#FFFFFF;gradientColor=none;fontSize=18;fontColor=#F08705;fontStyle=0" parent="1" vertex="1">
          <mxGeometry x="-802" y="477" width="80" height="80" as="geometry" />
        </mxCell>
        <mxCell id="26" value="" style="image;html=1;image=img/lib/clip_art/computers/Netbook_128x128.png;shadow=0;strokeColor=#000000;fillColor=#FFFFFF;gradientColor=none;fontSize=18;fontColor=#F08705;fontStyle=0" parent="1" vertex="1">
          <mxGeometry x="-702" y="477" width="80" height="80" as="geometry" />
        </mxCell>
        <mxCell id="27" value="" style="image;html=1;image=img/lib/clip_art/computers/Netbook_128x128.png;shadow=0;strokeColor=#000000;fillColor=#FFFFFF;gradientColor=none;fontSize=18;fontColor=#F08705;fontStyle=0" parent="1" vertex="1">
          <mxGeometry x="-472" y="477" width="80" height="80" as="geometry" />
        </mxCell>
        <mxCell id="28" value="" style="image;html=1;image=img/lib/clip_art/computers/Netbook_128x128.png;shadow=0;strokeColor=#000000;fillColor=#FFFFFF;gradientColor=none;fontSize=18;fontColor=#F08705;fontStyle=0" parent="1" vertex="1">
          <mxGeometry x="-382" y="477" width="80" height="80" as="geometry" />
        </mxCell>
        <mxCell id="29" value="" style="image;html=1;image=img/lib/clip_art/computers/Netbook_128x128.png;shadow=0;strokeColor=#000000;fillColor=#FFFFFF;gradientColor=none;fontSize=18;fontColor=#F08705;fontStyle=0" parent="1" vertex="1">
          <mxGeometry x="-282" y="480" width="77" height="77" as="geometry" />
        </mxCell>
        <mxCell id="30" value="" style="image;html=1;image=img/lib/clip_art/computers/Netbook_128x128.png;shadow=0;strokeColor=#000000;fillColor=#FFFFFF;gradientColor=none;fontSize=18;fontColor=#F08705;fontStyle=0" parent="1" vertex="1">
          <mxGeometry x="-892" y="669" width="80" height="80" as="geometry" />
        </mxCell>
        <mxCell id="31" value="" style="image;html=1;image=img/lib/clip_art/computers/Netbook_128x128.png;shadow=0;strokeColor=#000000;fillColor=#FFFFFF;gradientColor=none;fontSize=18;fontColor=#F08705;fontStyle=0" parent="1" vertex="1">
          <mxGeometry x="-802" y="669" width="80" height="80" as="geometry" />
        </mxCell>
        <mxCell id="32" value="" style="image;html=1;image=img/lib/clip_art/computers/Netbook_128x128.png;shadow=0;strokeColor=#000000;fillColor=#FFFFFF;gradientColor=none;fontSize=18;fontColor=#AE4132;fontStyle=0" parent="1" vertex="1">
          <mxGeometry x="-702" y="669" width="80" height="80" as="geometry" />
        </mxCell>
        <mxCell id="33" value="" style="image;html=1;image=img/lib/clip_art/computers/Netbook_128x128.png;shadow=0;strokeColor=#000000;fillColor=#FFFFFF;gradientColor=none;fontSize=18;fontColor=#F08705;fontStyle=0" parent="1" vertex="1">
          <mxGeometry x="-472" y="669" width="80" height="80" as="geometry" />
        </mxCell>
        <mxCell id="34" value="" style="image;html=1;image=img/lib/clip_art/computers/Netbook_128x128.png;shadow=0;strokeColor=#000000;fillColor=#FFFFFF;gradientColor=none;fontSize=18;fontColor=#F08705;fontStyle=0" parent="1" vertex="1">
          <mxGeometry x="-382" y="669" width="80" height="80" as="geometry" />
        </mxCell>
        <mxCell id="35" value="" style="image;html=1;image=img/lib/clip_art/computers/Netbook_128x128.png;shadow=0;strokeColor=#000000;fillColor=#FFFFFF;gradientColor=none;fontSize=18;fontColor=#F08705;fontStyle=0" parent="1" vertex="1">
          <mxGeometry x="-282" y="669" width="80" height="80" as="geometry" />
        </mxCell>
        <mxCell id="36" value="" style="image;html=1;image=img/lib/clip_art/computers/Netbook_128x128.png;shadow=0;strokeColor=#000000;fillColor=#FFFFFF;gradientColor=none;fontSize=18;fontColor=#F08705;fontStyle=0" parent="1" vertex="1">
          <mxGeometry x="-1062" y="854" width="80" height="80" as="geometry" />
        </mxCell>
        <mxCell id="37" value="" style="image;html=1;image=img/lib/clip_art/computers/Netbook_128x128.png;shadow=0;strokeColor=#000000;fillColor=#FFFFFF;gradientColor=none;fontSize=18;fontColor=#F08705;fontStyle=0" parent="1" vertex="1">
          <mxGeometry x="-972" y="854" width="80" height="80" as="geometry" />
        </mxCell>
        <mxCell id="38" value="" style="image;html=1;image=img/lib/clip_art/computers/Netbook_128x128.png;shadow=0;strokeColor=#000000;fillColor=#FFFFFF;gradientColor=none;fontSize=18;fontColor=#F08705;fontStyle=0" parent="1" vertex="1">
          <mxGeometry x="-872" y="854" width="80" height="80" as="geometry" />
        </mxCell>
        <mxCell id="39" value="" style="image;html=1;image=img/lib/clip_art/computers/Server_Rack_128x128.png;shadow=0;strokeColor=#000000;fillColor=#FFFFFF;gradientColor=none;fontSize=18;fontColor=#F08705;fontStyle=0" parent="1" vertex="1">
          <mxGeometry x="-762" y="854" width="80" height="80" as="geometry" />
        </mxCell>
        <mxCell id="40" value="" style="image;html=1;image=img/lib/clip_art/computers/Server_Rack_128x128.png;shadow=0;strokeColor=#000000;fillColor=#FFFFFF;gradientColor=none;fontSize=18;fontColor=#F08705;fontStyle=0" parent="1" vertex="1">
          <mxGeometry x="-672" y="854" width="80" height="80" as="geometry" />
        </mxCell>
        <mxCell id="41" value="" style="image;html=1;image=img/lib/clip_art/computers/Server_Rack_128x128.png;shadow=0;strokeColor=#000000;fillColor=#FFFFFF;gradientColor=none;fontSize=18;fontColor=#F08705;fontStyle=0" parent="1" vertex="1">
          <mxGeometry x="-582" y="854" width="80" height="80" as="geometry" />
        </mxCell>
        <mxCell id="42" value="" style="image;html=1;image=img/lib/clip_art/computers/Server_Tower_128x128.png;shadow=0;strokeColor=#000000;fillColor=#FFFFFF;gradientColor=none;fontSize=18;fontColor=#F08705;fontStyle=0" parent="1" vertex="1">
          <mxGeometry x="-467" y="864" width="80" height="80" as="geometry" />
        </mxCell>
        <mxCell id="43" value="" style="image;html=1;image=img/lib/clip_art/computers/Server_Tower_128x128.png;shadow=0;strokeColor=#000000;fillColor=#FFFFFF;gradientColor=none;fontSize=18;fontColor=#F08705;fontStyle=0" parent="1" vertex="1">
          <mxGeometry x="-367" y="864" width="80" height="80" as="geometry" />
        </mxCell>
        <mxCell id="44" value="" style="image;html=1;image=img/lib/clip_art/computers/Server_Tower_128x128.png;shadow=0;strokeColor=#000000;fillColor=#FFFFFF;gradientColor=none;fontSize=18;fontColor=#F08705;fontStyle=0" parent="1" vertex="1">
          <mxGeometry x="-277" y="864" width="80" height="80" as="geometry" />
        </mxCell>
        <mxCell id="45" value="" style="strokeWidth=2;strokeColor=#666666;dashed=0;align=center;html=1;fontSize=8;shape=mxgraph.eip.messageChannel;shadow=0;fillColor=#FFFFFF;gradientColor=none;fontColor=#F08705;fontStyle=0" parent="1" vertex="1">
          <mxGeometry x="-474" y="609" width="422" height="20" as="geometry" />
        </mxCell>
        <mxCell id="46" value="" style="strokeWidth=2;strokeColor=#666666;dashed=0;align=center;html=1;fontSize=8;shape=mxgraph.eip.messageChannel;shadow=0;fillColor=#FFFFFF;gradientColor=none;fontColor=#F08705;fontStyle=0" parent="1" vertex="1">
          <mxGeometry x="-1042" y="779" width="440" height="20" as="geometry" />
        </mxCell>
        <mxCell id="47" value="" style="strokeWidth=2;strokeColor=#666666;dashed=0;align=center;html=1;fontSize=8;shape=mxgraph.eip.messageChannel;shadow=0;fillColor=#FFFFFF;gradientColor=none;fontColor=#F08705;fontStyle=0" parent="1" vertex="1">
          <mxGeometry x="-474" y="779" width="412" height="20" as="geometry" />
        </mxCell>
        <mxCell id="48" value="" style="strokeWidth=2;strokeColor=#666666;dashed=0;align=center;html=1;fontSize=8;shape=mxgraph.eip.messageChannel;shadow=0;fillColor=#FFFFFF;gradientColor=none;fontColor=#F08705;fontStyle=0" parent="1" vertex="1">
          <mxGeometry x="-1162" y="974" width="1090" height="20" as="geometry" />
        </mxCell>
        <mxCell id="49" value="Cloud 1" style="ellipse;shape=cloud;whiteSpace=wrap;html=1;shadow=0;strokeColor=#23445D;fillColor=#BAC8D3;gradientColor=none;fontSize=18;fontColor=#23445D;fontStyle=0;gradientDirection=north;strokeWidth=2;" parent="1" vertex="1">
          <mxGeometry x="-1342" y="477" width="120" height="80" as="geometry" />
        </mxCell>
        <mxCell id="50" value="Cloud 2" style="ellipse;shape=cloud;whiteSpace=wrap;html=1;shadow=0;strokeColor=#23445D;fillColor=#BAC8D3;gradientColor=none;fontSize=18;fontColor=#23445D;fontStyle=0;gradientDirection=north;strokeWidth=2;" parent="1" vertex="1">
          <mxGeometry x="-1342" y="739" width="120" height="80" as="geometry" />
        </mxCell>
        <mxCell id="51" value="" style="image;html=1;image=img/lib/clip_art/networking/Router_128x128.png;shadow=0;strokeColor=#000000;fillColor=#FFFFFF;gradientColor=none;fontSize=18;fontColor=#F08705;fontStyle=0" parent="1" vertex="1">
          <mxGeometry x="-152" y="497" width="80" height="80" as="geometry" />
        </mxCell>
        <mxCell id="52" value="" style="image;html=1;image=img/lib/clip_art/networking/Router_128x128.png;shadow=0;strokeColor=#000000;fillColor=#FFFFFF;gradientColor=none;fontSize=18;fontColor=#F08705;fontStyle=0" parent="1" vertex="1">
          <mxGeometry x="-142" y="661" width="80" height="80" as="geometry" />
        </mxCell>
        <mxCell id="53" value="" style="image;html=1;image=img/lib/clip_art/networking/Router_128x128.png;shadow=0;strokeColor=#000000;fillColor=#FFFFFF;gradientColor=none;fontSize=18;fontColor=#F08705;fontStyle=0" parent="1" vertex="1">
          <mxGeometry x="-732" y="1059" width="80" height="80" as="geometry" />
        </mxCell>
        <mxCell id="54" value="" style="image;html=1;image=img/lib/clip_art/computers/Monitor_Tower_128x128.png;shadow=0;strokeColor=#000000;fillColor=#FFFFFF;gradientColor=none;fontSize=18;fontColor=#F08705;fontStyle=0" parent="1" vertex="1">
          <mxGeometry x="-162" y="864" width="80" height="80" as="geometry" />
        </mxCell>
        <mxCell id="55" value="" style="image;html=1;image=img/lib/clip_art/networking/Wireless_Router_128x128.png;shadow=0;strokeColor=#000000;fillColor=#FFFFFF;gradientColor=none;fontSize=18;fontColor=#F08705;fontStyle=0" parent="1" vertex="1">
          <mxGeometry x="-992" y="1059" width="80" height="80" as="geometry" />
        </mxCell>
        <mxCell id="56" value="" style="image;html=1;image=img/lib/clip_art/networking/Wireless_Router_128x128.png;shadow=0;strokeColor=#000000;fillColor=#FFFFFF;gradientColor=none;fontSize=18;fontColor=#F08705;fontStyle=0" parent="1" vertex="1">
          <mxGeometry x="-52" y="864" width="80" height="80" as="geometry" />
        </mxCell>
        <mxCell id="57" value="" style="image;html=1;image=img/lib/clip_art/networking/Wireless_Router_128x128.png;shadow=0;strokeColor=#000000;fillColor=#FFFFFF;gradientColor=none;fontSize=18;fontColor=#F08705;fontStyle=0" parent="1" vertex="1">
          <mxGeometry x="-819" y="1195" width="80" height="80" as="geometry" />
        </mxCell>
        <mxCell id="58" style="edgeStyle=orthogonalEdgeStyle;rounded=0;html=1;fontSize=18;fontColor=#F08705;endArrow=none;endFill=0;strokeColor=#23445D;strokeWidth=2;curved=1;fontStyle=0" parent="1" source="53" target="57" edge="1">
          <mxGeometry relative="1" as="geometry" />
        </mxCell>
        <mxCell id="59" value="" style="image;html=1;image=img/lib/clip_art/computers/Netbook_128x128.png;shadow=0;strokeColor=#000000;fillColor=#FFFFFF;gradientColor=none;fontSize=18;fontColor=#F08705;fontStyle=0" parent="1" vertex="1">
          <mxGeometry x="-1134" y="1195" width="80" height="80" as="geometry" />
        </mxCell>
        <mxCell id="60" value="" style="image;html=1;image=img/lib/clip_art/computers/Netbook_128x128.png;shadow=0;strokeColor=#000000;fillColor=#FFFFFF;gradientColor=none;fontSize=18;fontColor=#F08705;fontStyle=0" parent="1" vertex="1">
          <mxGeometry x="-1044" y="1195" width="80" height="80" as="geometry" />
        </mxCell>
        <mxCell id="61" value="" style="image;html=1;image=img/lib/clip_art/computers/Netbook_128x128.png;shadow=0;strokeColor=#000000;fillColor=#FFFFFF;gradientColor=none;fontSize=18;fontColor=#F08705;fontStyle=0" parent="1" vertex="1">
          <mxGeometry x="-944" y="1195" width="80" height="80" as="geometry" />
        </mxCell>
        <mxCell id="62" value="" style="strokeWidth=2;strokeColor=#666666;dashed=0;align=center;html=1;fontSize=8;shape=mxgraph.eip.messageChannel;shadow=0;fillColor=#FFFFFF;gradientColor=none;fontColor=#F08705;fontStyle=0" parent="1" vertex="1">
          <mxGeometry x="-1134" y="1305" width="415" height="20" as="geometry" />
        </mxCell>
        <mxCell id="63" value="" style="image;html=1;image=img/lib/clip_art/computers/Netbook_128x128.png;shadow=0;strokeColor=#000000;fillColor=#FFFFFF;gradientColor=none;fontSize=18;fontColor=#F08705;fontStyle=0" parent="1" vertex="1">
          <mxGeometry x="-1030" y="1373" width="80" height="80" as="geometry" />
        </mxCell>
        <mxCell id="64" value="" style="image;html=1;image=img/lib/clip_art/computers/Netbook_128x128.png;shadow=0;strokeColor=#000000;fillColor=#FFFFFF;gradientColor=none;fontSize=18;fontColor=#F08705;fontStyle=0" parent="1" vertex="1">
          <mxGeometry x="-940" y="1373" width="80" height="80" as="geometry" />
        </mxCell>
        <mxCell id="65" value="" style="image;html=1;image=img/lib/clip_art/computers/Netbook_128x128.png;shadow=0;strokeColor=#000000;fillColor=#FFFFFF;gradientColor=none;fontSize=18;fontColor=#F08705;fontStyle=0" parent="1" vertex="1">
          <mxGeometry x="-840" y="1373" width="80" height="80" as="geometry" />
        </mxCell>
        <mxCell id="66" value="" style="strokeWidth=2;strokeColor=#666666;dashed=0;align=center;html=1;fontSize=8;shape=mxgraph.eip.messageChannel;shadow=0;fillColor=#FFFFFF;gradientColor=none;fontColor=#F08705;fontStyle=0" parent="1" vertex="1">
          <mxGeometry x="-1030" y="1475" width="385" height="20" as="geometry" />
        </mxCell>
        <mxCell id="67" value="" style="image;html=1;image=img/lib/clip_art/computers/Netbook_128x128.png;shadow=0;strokeColor=#000000;fillColor=#FFFFFF;gradientColor=none;fontSize=18;fontColor=#F08705;fontStyle=0" parent="1" vertex="1">
          <mxGeometry x="110" y="1164" width="80" height="80" as="geometry" />
        </mxCell>
        <mxCell id="68" value="" style="image;html=1;image=img/lib/clip_art/computers/Netbook_128x128.png;shadow=0;strokeColor=#000000;fillColor=#FFFFFF;gradientColor=none;fontSize=18;fontColor=#F08705;fontStyle=0" parent="1" vertex="1">
          <mxGeometry x="20" y="1164" width="80" height="80" as="geometry" />
        </mxCell>
        <mxCell id="69" value="" style="image;html=1;image=img/lib/clip_art/computers/Netbook_128x128.png;shadow=0;strokeColor=#000000;fillColor=#FFFFFF;gradientColor=none;fontSize=18;fontColor=#F08705;fontStyle=0" parent="1" vertex="1">
          <mxGeometry x="-90" y="1164" width="80" height="80" as="geometry" />
        </mxCell>
        <mxCell id="70" value="" style="strokeWidth=2;strokeColor=#666666;dashed=0;align=center;html=1;fontSize=8;shape=mxgraph.eip.messageChannel;shadow=0;fillColor=#FFFFFF;gradientColor=none;fontColor=#F08705;fontStyle=0" parent="1" vertex="1">
          <mxGeometry x="-190" y="1288" width="400" height="20" as="geometry" />
        </mxCell>
        <mxCell id="71" value="" style="image;html=1;image=img/lib/clip_art/computers/Netbook_128x128.png;shadow=0;strokeColor=#000000;fillColor=#FFFFFF;gradientColor=none;fontSize=18;fontColor=#F08705;fontStyle=0" parent="1" vertex="1">
          <mxGeometry x="-161" y="1359" width="80" height="80" as="geometry" />
        </mxCell>
        <mxCell id="72" value="" style="image;html=1;image=img/lib/clip_art/computers/Netbook_128x128.png;shadow=0;strokeColor=#000000;fillColor=#FFFFFF;gradientColor=none;fontSize=18;fontColor=#F08705;fontStyle=0" parent="1" vertex="1">
          <mxGeometry x="-71" y="1359" width="80" height="80" as="geometry" />
        </mxCell>
        <mxCell id="73" value="" style="image;html=1;image=img/lib/clip_art/computers/Netbook_128x128.png;shadow=0;strokeColor=#000000;fillColor=#FFFFFF;gradientColor=none;fontSize=18;fontColor=#F08705;fontStyle=0" parent="1" vertex="1">
          <mxGeometry x="29" y="1359" width="80" height="80" as="geometry" />
        </mxCell>
        <mxCell id="74" value="" style="strokeWidth=2;strokeColor=#666666;dashed=0;align=center;html=1;fontSize=8;shape=mxgraph.eip.messageChannel;shadow=0;fillColor=#FFFFFF;gradientColor=none;fontColor=#F08705;fontStyle=0" parent="1" vertex="1">
          <mxGeometry x="-301" y="1471" width="430" height="20" as="geometry" />
        </mxCell>
        <mxCell id="75" value="" style="image;html=1;image=img/lib/clip_art/networking/Wireless_Router_128x128.png;shadow=0;strokeColor=#000000;fillColor=#FFFFFF;gradientColor=none;fontSize=18;fontColor=#F08705;fontStyle=0" parent="1" vertex="1">
          <mxGeometry x="-735" y="1373" width="80" height="80" as="geometry" />
        </mxCell>
        <mxCell id="76" value="" style="image;html=1;image=img/lib/clip_art/computers/Workstation_128x128.png;shadow=0;strokeColor=#000000;fillColor=#FFFFFF;gradientColor=none;fontSize=18;fontColor=#F08705;fontStyle=0" parent="1" vertex="1">
          <mxGeometry x="128" y="799" width="80" height="80" as="geometry" />
        </mxCell>
        <mxCell id="77" value="" style="image;html=1;image=img/lib/clip_art/computers/Workstation_128x128.png;shadow=0;strokeColor=#000000;fillColor=#FFFFFF;gradientColor=none;fontSize=18;fontColor=#F08705;fontStyle=0" parent="1" vertex="1">
          <mxGeometry x="128" y="904" width="80" height="80" as="geometry" />
        </mxCell>
        <mxCell id="78" value="" style="image;html=1;image=img/lib/clip_art/computers/Workstation_128x128.png;shadow=0;strokeColor=#000000;fillColor=#FFFFFF;gradientColor=none;fontSize=18;fontColor=#F08705;fontStyle=0" parent="1" vertex="1">
          <mxGeometry x="128" y="1009" width="80" height="80" as="geometry" />
        </mxCell>
        <mxCell id="79" value="" style="image;html=1;image=img/lib/clip_art/computers/Workstation_128x128.png;shadow=0;strokeColor=#000000;fillColor=#FFFFFF;gradientColor=none;fontSize=18;fontColor=#F08705;fontStyle=0" parent="1" vertex="1">
          <mxGeometry x="-1352" y="883" width="80" height="80" as="geometry" />
        </mxCell>
        <mxCell id="80" value="" style="image;html=1;image=img/lib/clip_art/computers/Workstation_128x128.png;shadow=0;strokeColor=#000000;fillColor=#FFFFFF;gradientColor=none;fontSize=18;fontColor=#F08705;fontStyle=0" parent="1" vertex="1">
          <mxGeometry x="-1342" y="979" width="80" height="80" as="geometry" />
        </mxCell>
        <mxCell id="81" value="" style="image;html=1;image=img/lib/clip_art/computers/Workstation_128x128.png;shadow=0;strokeColor=#000000;fillColor=#FFFFFF;gradientColor=none;fontSize=18;fontColor=#F08705;fontStyle=0" parent="1" vertex="1">
          <mxGeometry x="-1342" y="1073" width="80" height="80" as="geometry" />
        </mxCell>
        <mxCell id="82" value="" style="image;html=1;image=img/lib/clip_art/networking/Firewall_128x128.png;shadow=0;strokeColor=#000000;fillColor=#FFFFFF;gradientColor=none;fontSize=18;fontColor=#F08705;fontStyle=0" parent="1" vertex="1">
          <mxGeometry x="-387" y="1059" width="80" height="80" as="geometry" />
        </mxCell>
        <mxCell id="83" style="edgeStyle=none;rounded=0;html=1;fontSize=18;fontColor=#F08705;endArrow=none;endFill=0;strokeColor=#23445D;strokeWidth=2;fontStyle=0" parent="1" source="22" target="23" edge="1">
          <mxGeometry relative="1" as="geometry" />
        </mxCell>
        <mxCell id="84" value="" style="image;html=1;image=img/lib/clip_art/networking/Router_128x128.png;shadow=0;strokeColor=#000000;fillColor=#FFFFFF;gradientColor=none;fontSize=18;fontColor=#F08705;fontStyle=0" parent="1" vertex="1">
          <mxGeometry x="-1014" y="669" width="80" height="80" as="geometry" />
        </mxCell>
        <mxCell id="85" value="" style="edgeStyle=elbowEdgeStyle;strokeWidth=2;rounded=0;endArrow=none;startArrow=none;startSize=10;endSize=10;dashed=0;html=1;strokeColor=#23445D;fontSize=18;fontColor=#F08705;startFill=0;endFill=0;fontStyle=0" parent="1" source="25" target="20" edge="1">
          <mxGeometry relative="1" as="geometry">
            <mxPoint x="-762" y="550" as="sourcePoint" />
            <mxPoint x="-762" y="610" as="targetPoint" />
          </mxGeometry>
        </mxCell>
        <mxCell id="86" value="" style="edgeStyle=elbowEdgeStyle;strokeWidth=2;rounded=0;endArrow=none;startArrow=none;startSize=10;endSize=10;dashed=0;html=1;strokeColor=#23445D;fontSize=18;fontColor=#F08705;startFill=0;endFill=0;fontStyle=0" parent="1" source="26" target="20" edge="1">
          <mxGeometry relative="1" as="geometry">
            <mxPoint x="-662" y="550" as="sourcePoint" />
            <mxPoint x="-662" y="610" as="targetPoint" />
          </mxGeometry>
        </mxCell>
        <mxCell id="87" value="" style="edgeStyle=elbowEdgeStyle;strokeWidth=2;rounded=0;endArrow=none;startArrow=none;startSize=10;endSize=10;dashed=0;html=1;strokeColor=#23445D;fontSize=18;fontColor=#F08705;startFill=0;endFill=0;fontStyle=0" parent="1" source="27" target="45" edge="1">
          <mxGeometry relative="1" as="geometry">
            <mxPoint x="-482" y="549" as="sourcePoint" />
            <mxPoint x="-482" y="602" as="targetPoint" />
          </mxGeometry>
        </mxCell>
        <mxCell id="88" value="" style="edgeStyle=elbowEdgeStyle;strokeWidth=2;rounded=0;endArrow=none;startArrow=none;startSize=10;endSize=10;dashed=0;html=1;strokeColor=#23445D;fontSize=18;fontColor=#F08705;startFill=0;endFill=0;fontStyle=0" parent="1" source="28" target="45" edge="1">
          <mxGeometry relative="1" as="geometry">
            <mxPoint x="-832" y="577" as="sourcePoint" />
            <mxPoint x="-832" y="630" as="targetPoint" />
          </mxGeometry>
        </mxCell>
        <mxCell id="89" value="" style="edgeStyle=elbowEdgeStyle;strokeWidth=2;rounded=0;endArrow=none;startArrow=none;startSize=10;endSize=10;dashed=0;html=1;strokeColor=#23445D;fontSize=18;fontColor=#F08705;startFill=0;endFill=0;fontStyle=0" parent="1" source="29" target="45" edge="1">
          <mxGeometry relative="1" as="geometry">
            <mxPoint x="-332" y="567" as="sourcePoint" />
            <mxPoint x="-332" y="619" as="targetPoint" />
          </mxGeometry>
        </mxCell>
        <mxCell id="90" value="" style="edgeStyle=elbowEdgeStyle;strokeWidth=2;rounded=0;endArrow=none;startArrow=none;startSize=10;endSize=10;dashed=0;html=1;strokeColor=#23445D;fontSize=18;fontColor=#F08705;startFill=0;endFill=0;fontStyle=0" parent="1" source="51" target="45" edge="1">
          <mxGeometry relative="1" as="geometry">
            <mxPoint x="-322" y="577" as="sourcePoint" />
            <mxPoint x="-322" y="629" as="targetPoint" />
          </mxGeometry>
        </mxCell>
        <mxCell id="91" value="" style="edgeStyle=elbowEdgeStyle;strokeWidth=2;rounded=0;endArrow=none;startArrow=none;startSize=10;endSize=10;dashed=0;html=1;strokeColor=#23445D;fontSize=18;fontColor=#F08705;startFill=0;endFill=0;fontStyle=0" parent="1" source="30" target="46" edge="1">
          <mxGeometry relative="1" as="geometry">
            <mxPoint x="-842" y="567" as="sourcePoint" />
            <mxPoint x="-842" y="620" as="targetPoint" />
          </mxGeometry>
        </mxCell>
        <mxCell id="92" value="" style="edgeStyle=elbowEdgeStyle;strokeWidth=2;rounded=0;endArrow=none;startArrow=none;startSize=10;endSize=10;dashed=0;html=1;strokeColor=#23445D;fontSize=18;fontColor=#F08705;startFill=0;endFill=0;fontStyle=0" parent="1" source="31" target="46" edge="1">
          <mxGeometry relative="1" as="geometry">
            <mxPoint x="-832" y="577" as="sourcePoint" />
            <mxPoint x="-832" y="630" as="targetPoint" />
          </mxGeometry>
        </mxCell>
        <mxCell id="93" value="" style="edgeStyle=elbowEdgeStyle;strokeWidth=2;rounded=0;endArrow=none;startArrow=none;startSize=10;endSize=10;dashed=0;html=1;strokeColor=#23445D;fontSize=18;fontColor=#F08705;startFill=0;endFill=0;fontStyle=0" parent="1" source="32" target="46" edge="1">
          <mxGeometry relative="1" as="geometry">
            <mxPoint x="-822" y="587" as="sourcePoint" />
            <mxPoint x="-822" y="640" as="targetPoint" />
          </mxGeometry>
        </mxCell>
        <mxCell id="94" value="" style="edgeStyle=elbowEdgeStyle;strokeWidth=2;rounded=0;endArrow=none;startArrow=none;startSize=10;endSize=10;dashed=0;html=1;strokeColor=#23445D;fontSize=18;fontColor=#F08705;startFill=0;endFill=0;fontStyle=0" parent="1" source="36" target="48" edge="1">
          <mxGeometry relative="1" as="geometry">
            <mxPoint x="-842" y="759" as="sourcePoint" />
            <mxPoint x="-842" y="789" as="targetPoint" />
          </mxGeometry>
        </mxCell>
        <mxCell id="95" value="" style="edgeStyle=elbowEdgeStyle;strokeWidth=2;rounded=0;endArrow=none;startArrow=none;startSize=10;endSize=10;dashed=0;html=1;strokeColor=#23445D;fontSize=18;fontColor=#F08705;startFill=0;endFill=0;fontStyle=0" parent="1" source="37" target="48" edge="1">
          <mxGeometry relative="1" as="geometry">
            <mxPoint x="-1092" y="944" as="sourcePoint" />
            <mxPoint x="-1092" y="984" as="targetPoint" />
          </mxGeometry>
        </mxCell>
        <mxCell id="96" value="" style="edgeStyle=elbowEdgeStyle;strokeWidth=2;rounded=0;endArrow=none;startArrow=none;startSize=10;endSize=10;dashed=0;html=1;strokeColor=#23445D;fontSize=18;fontColor=#F08705;startFill=0;endFill=0;fontStyle=0" parent="1" source="38" target="48" edge="1">
          <mxGeometry relative="1" as="geometry">
            <mxPoint x="-1082" y="954" as="sourcePoint" />
            <mxPoint x="-1082" y="994" as="targetPoint" />
          </mxGeometry>
        </mxCell>
        <mxCell id="97" value="" style="edgeStyle=elbowEdgeStyle;strokeWidth=2;rounded=0;endArrow=none;startArrow=none;startSize=10;endSize=10;dashed=0;html=1;strokeColor=#23445D;fontSize=18;fontColor=#F08705;startFill=0;endFill=0;fontStyle=0" parent="1" source="39" target="48" edge="1">
          <mxGeometry relative="1" as="geometry">
            <mxPoint x="-902" y="944" as="sourcePoint" />
            <mxPoint x="-902" y="984" as="targetPoint" />
          </mxGeometry>
        </mxCell>
        <mxCell id="98" value="" style="edgeStyle=elbowEdgeStyle;strokeWidth=2;rounded=0;endArrow=none;startArrow=none;startSize=10;endSize=10;dashed=0;html=1;strokeColor=#23445D;fontSize=18;fontColor=#F08705;startFill=0;endFill=0;fontStyle=0" parent="1" source="40" target="48" edge="1">
          <mxGeometry relative="1" as="geometry">
            <mxPoint x="-892" y="954" as="sourcePoint" />
            <mxPoint x="-892" y="994" as="targetPoint" />
          </mxGeometry>
        </mxCell>
        <mxCell id="99" value="" style="edgeStyle=elbowEdgeStyle;strokeWidth=2;rounded=0;endArrow=none;startArrow=none;startSize=10;endSize=10;dashed=0;html=1;strokeColor=#23445D;fontSize=18;fontColor=#F08705;startFill=0;endFill=0;fontStyle=0" parent="1" source="41" target="48" edge="1">
          <mxGeometry relative="1" as="geometry">
            <mxPoint x="-657" y="944" as="sourcePoint" />
            <mxPoint x="-657" y="984" as="targetPoint" />
          </mxGeometry>
        </mxCell>
        <mxCell id="100" value="" style="edgeStyle=elbowEdgeStyle;strokeWidth=2;rounded=0;endArrow=none;startArrow=none;startSize=10;endSize=10;dashed=0;html=1;strokeColor=#23445D;fontSize=18;fontColor=#F08705;startFill=0;endFill=0;fontStyle=0" parent="1" source="42" target="48" edge="1">
          <mxGeometry relative="1" as="geometry">
            <mxPoint x="-647" y="954" as="sourcePoint" />
            <mxPoint x="-647" y="994" as="targetPoint" />
          </mxGeometry>
        </mxCell>
        <mxCell id="101" value="" style="edgeStyle=elbowEdgeStyle;strokeWidth=2;rounded=0;endArrow=none;startArrow=none;startSize=10;endSize=10;dashed=0;html=1;strokeColor=#23445D;fontSize=18;fontColor=#F08705;startFill=0;endFill=0;fontStyle=0" parent="1" source="43" target="48" edge="1">
          <mxGeometry relative="1" as="geometry">
            <mxPoint x="-637" y="964" as="sourcePoint" />
            <mxPoint x="-637" y="1004" as="targetPoint" />
          </mxGeometry>
        </mxCell>
        <mxCell id="102" value="" style="edgeStyle=elbowEdgeStyle;strokeWidth=2;rounded=0;endArrow=none;startArrow=none;startSize=10;endSize=10;dashed=0;html=1;strokeColor=#23445D;fontSize=18;fontColor=#F08705;startFill=0;endFill=0;fontStyle=0" parent="1" source="44" target="48" edge="1">
          <mxGeometry relative="1" as="geometry">
            <mxPoint x="-627" y="974" as="sourcePoint" />
            <mxPoint x="-627" y="1014" as="targetPoint" />
          </mxGeometry>
        </mxCell>
        <mxCell id="103" value="" style="edgeStyle=elbowEdgeStyle;strokeWidth=2;rounded=0;endArrow=none;startArrow=none;startSize=10;endSize=10;dashed=0;html=1;strokeColor=#23445D;fontSize=18;fontColor=#F08705;startFill=0;endFill=0;fontStyle=0" parent="1" source="82" target="48" edge="1">
          <mxGeometry relative="1" as="geometry">
            <mxPoint x="-617" y="984" as="sourcePoint" />
            <mxPoint x="-617" y="1024" as="targetPoint" />
          </mxGeometry>
        </mxCell>
        <mxCell id="104" value="" style="edgeStyle=elbowEdgeStyle;strokeWidth=2;rounded=0;endArrow=none;startArrow=none;startSize=10;endSize=10;dashed=0;html=1;strokeColor=#23445D;fontSize=18;fontColor=#F08705;startFill=0;endFill=0;fontStyle=0" parent="1" source="33" target="47" edge="1">
          <mxGeometry relative="1" as="geometry">
            <mxPoint x="-607" y="994" as="sourcePoint" />
            <mxPoint x="-607" y="1034" as="targetPoint" />
          </mxGeometry>
        </mxCell>
        <mxCell id="105" value="" style="edgeStyle=elbowEdgeStyle;strokeWidth=2;rounded=0;endArrow=none;startArrow=none;startSize=10;endSize=10;dashed=0;html=1;strokeColor=#23445D;fontSize=18;fontColor=#F08705;startFill=0;endFill=0;fontStyle=0" parent="1" source="34" target="47" edge="1">
          <mxGeometry relative="1" as="geometry">
            <mxPoint x="-422" y="759" as="sourcePoint" />
            <mxPoint x="-422" y="789" as="targetPoint" />
          </mxGeometry>
        </mxCell>
        <mxCell id="106" value="" style="edgeStyle=elbowEdgeStyle;strokeWidth=2;rounded=0;endArrow=none;startArrow=none;startSize=10;endSize=10;dashed=0;html=1;strokeColor=#23445D;fontSize=18;fontColor=#F08705;startFill=0;endFill=0;fontStyle=0" parent="1" source="35" target="47" edge="1">
          <mxGeometry relative="1" as="geometry">
            <mxPoint x="-412" y="769" as="sourcePoint" />
            <mxPoint x="-412" y="799" as="targetPoint" />
          </mxGeometry>
        </mxCell>
        <mxCell id="107" value="" style="edgeStyle=elbowEdgeStyle;strokeWidth=2;rounded=0;endArrow=none;startArrow=none;startSize=10;endSize=10;dashed=0;html=1;strokeColor=#23445D;fontSize=18;fontColor=#F08705;startFill=0;endFill=0;fontStyle=0" parent="1" source="52" target="47" edge="1">
          <mxGeometry relative="1" as="geometry">
            <mxPoint x="-402" y="779" as="sourcePoint" />
            <mxPoint x="-402" y="809" as="targetPoint" />
          </mxGeometry>
        </mxCell>
        <mxCell id="108" style="edgeStyle=none;rounded=0;html=1;startArrow=none;startFill=0;endArrow=none;endFill=0;fontSize=18;fontColor=#F08705;strokeColor=#23445D;strokeWidth=2;fontStyle=0" parent="1" source="51" target="17" edge="1">
          <mxGeometry relative="1" as="geometry" />
        </mxCell>
        <mxCell id="109" style="edgeStyle=orthogonalEdgeStyle;rounded=0;html=1;startArrow=none;startFill=0;endArrow=none;endFill=0;fontSize=18;fontColor=#F08705;strokeColor=#23445D;strokeWidth=2;curved=1;fontStyle=0" parent="1" source="52" target="18" edge="1">
          <mxGeometry relative="1" as="geometry">
            <Array as="points">
              <mxPoint x="12" y="701" />
              <mxPoint x="12" y="640" />
            </Array>
          </mxGeometry>
        </mxCell>
        <mxCell id="110" style="edgeStyle=none;rounded=0;html=1;startArrow=none;startFill=0;endArrow=none;endFill=0;fontSize=18;fontColor=#F08705;strokeColor=#23445D;strokeWidth=2;fontStyle=0" parent="1" source="82" target="19" edge="1">
          <mxGeometry relative="1" as="geometry" />
        </mxCell>
        <mxCell id="111" value="" style="image;html=1;image=img/lib/clip_art/computers/Laptop_128x128.png;shadow=0;strokeColor=#000000;fillColor=#FFFFFF;gradientColor=none;fontSize=18;fontColor=#F08705;fontStyle=0" parent="1" vertex="1">
          <mxGeometry x="-597" y="1310" width="80" height="80" as="geometry" />
        </mxCell>
        <mxCell id="112" value="" style="image;html=1;image=img/lib/clip_art/computers/Laptop_128x128.png;shadow=0;strokeColor=#000000;fillColor=#FFFFFF;gradientColor=none;fontSize=18;fontColor=#F08705;fontStyle=0" parent="1" vertex="1">
          <mxGeometry x="-517" y="1310" width="80" height="80" as="geometry" />
        </mxCell>
        <mxCell id="113" value="" style="image;html=1;image=img/lib/clip_art/computers/Laptop_128x128.png;shadow=0;strokeColor=#000000;fillColor=#FFFFFF;gradientColor=none;fontSize=18;fontColor=#F08705;fontStyle=0" parent="1" vertex="1">
          <mxGeometry x="-507" y="1390" width="80" height="80" as="geometry" />
        </mxCell>
        <mxCell id="114" value="" style="image;html=1;image=img/lib/clip_art/computers/Laptop_128x128.png;shadow=0;strokeColor=#000000;fillColor=#FFFFFF;gradientColor=none;fontSize=18;fontColor=#F08705;fontStyle=0" parent="1" vertex="1">
          <mxGeometry x="-412" y="1371" width="80" height="80" as="geometry" />
        </mxCell>
        <mxCell id="115" style="edgeStyle=orthogonalEdgeStyle;rounded=0;html=1;startArrow=none;startFill=0;endArrow=none;endFill=0;fontSize=18;fontColor=#F08705;strokeColor=#23445D;strokeWidth=2;curved=1;fontStyle=0" parent="1" source="23" target="49" edge="1">
          <mxGeometry relative="1" as="geometry" />
        </mxCell>
        <mxCell id="116" style="edgeStyle=orthogonalEdgeStyle;rounded=0;html=1;startArrow=none;startFill=0;endArrow=none;endFill=0;fontSize=18;fontColor=#F08705;strokeColor=#23445D;strokeWidth=2;curved=1;fontStyle=0" parent="1" source="84" target="50" edge="1">
          <mxGeometry relative="1" as="geometry" />
        </mxCell>
        <mxCell id="117" style="edgeStyle=orthogonalEdgeStyle;rounded=0;html=1;startArrow=none;startFill=0;endArrow=none;endFill=0;fontSize=18;fontColor=#F08705;strokeColor=#23445D;strokeWidth=2;curved=1;fontStyle=0" parent="1" source="55" target="79" edge="1">
          <mxGeometry relative="1" as="geometry">
            <Array as="points">
              <mxPoint x="-1182" y="1060" />
              <mxPoint x="-1182" y="923" />
            </Array>
          </mxGeometry>
        </mxCell>
        <mxCell id="118" style="edgeStyle=orthogonalEdgeStyle;rounded=0;html=1;startArrow=none;startFill=0;endArrow=none;endFill=0;fontSize=18;fontColor=#F08705;strokeColor=#23445D;strokeWidth=2;curved=1;fontStyle=0" parent="1" source="55" target="80" edge="1">
          <mxGeometry relative="1" as="geometry">
            <Array as="points">
              <mxPoint x="-1192" y="1060" />
              <mxPoint x="-1192" y="1019" />
            </Array>
          </mxGeometry>
        </mxCell>
        <mxCell id="119" style="edgeStyle=orthogonalEdgeStyle;rounded=0;html=1;startArrow=none;startFill=0;endArrow=none;endFill=0;fontSize=18;fontColor=#F08705;strokeColor=#23445D;strokeWidth=2;curved=1;fontStyle=0" parent="1" source="55" target="81" edge="1">
          <mxGeometry relative="1" as="geometry">
            <Array as="points">
              <mxPoint x="-1182" y="1060" />
              <mxPoint x="-1182" y="1113" />
            </Array>
          </mxGeometry>
        </mxCell>
        <mxCell id="120" value="" style="edgeStyle=elbowEdgeStyle;strokeWidth=2;rounded=0;endArrow=none;startArrow=none;startSize=10;endSize=10;dashed=0;html=1;strokeColor=#23445D;fontSize=18;fontColor=#F08705;startFill=0;endFill=0;fontStyle=0" parent="1" source="48" target="53" edge="1">
          <mxGeometry relative="1" as="geometry">
            <mxPoint x="-902.2380952380952" y="944.4761904761906" as="sourcePoint" />
            <mxPoint x="-902.2380952380952" y="983.7619047619048" as="targetPoint" />
          </mxGeometry>
        </mxCell>
        <mxCell id="121" value="" style="edgeStyle=elbowEdgeStyle;strokeWidth=2;rounded=0;endArrow=none;startArrow=none;startSize=10;endSize=10;dashed=0;html=1;strokeColor=#23445D;fontSize=18;fontColor=#F08705;startFill=0;endFill=0;fontStyle=0" parent="1" source="48" target="54" edge="1">
          <mxGeometry relative="1" as="geometry">
            <mxPoint x="-741.5238095238096" y="1004" as="sourcePoint" />
            <mxPoint x="-741.5238095238096" y="1069.4761904761906" as="targetPoint" />
          </mxGeometry>
        </mxCell>
        <mxCell id="122" style="edgeStyle=orthogonalEdgeStyle;rounded=0;html=1;startArrow=none;startFill=0;endArrow=none;endFill=0;fontSize=18;fontColor=#F08705;strokeColor=#23445D;strokeWidth=2;curved=1;fontStyle=0" parent="1" source="114" target="19" edge="1">
          <mxGeometry relative="1" as="geometry">
            <Array as="points">
              <mxPoint x="-362" y="1360" />
              <mxPoint x="-362" y="1360" />
            </Array>
          </mxGeometry>
        </mxCell>
        <mxCell id="123" style="edgeStyle=orthogonalEdgeStyle;rounded=0;html=1;startArrow=none;startFill=0;endArrow=none;endFill=0;fontSize=18;fontColor=#F08705;strokeColor=#23445D;strokeWidth=2;curved=1;fontStyle=0" parent="1" source="113" target="19" edge="1">
          <mxGeometry relative="1" as="geometry">
            <Array as="points">
              <mxPoint x="-422" y="1430" />
              <mxPoint x="-422" y="1320" />
              <mxPoint x="-362" y="1320" />
            </Array>
          </mxGeometry>
        </mxCell>
        <mxCell id="124" style="edgeStyle=orthogonalEdgeStyle;rounded=0;html=1;startArrow=none;startFill=0;endArrow=none;endFill=0;fontSize=18;fontColor=#F08705;strokeColor=#23445D;strokeWidth=2;curved=1;fontStyle=0" parent="1" source="112" target="19" edge="1">
          <mxGeometry relative="1" as="geometry">
            <Array as="points">
              <mxPoint x="-477" y="1230" />
            </Array>
          </mxGeometry>
        </mxCell>
        <mxCell id="125" style="edgeStyle=orthogonalEdgeStyle;rounded=0;html=1;startArrow=none;startFill=0;endArrow=none;endFill=0;fontSize=18;fontColor=#F08705;strokeColor=#23445D;strokeWidth=2;curved=1;fontStyle=0" parent="1" source="111" target="19" edge="1">
          <mxGeometry relative="1" as="geometry">
            <Array as="points">
              <mxPoint x="-557" y="1210" />
            </Array>
          </mxGeometry>
        </mxCell>
        <mxCell id="126" style="edgeStyle=none;rounded=0;html=1;startArrow=none;startFill=0;endArrow=none;endFill=0;fontSize=18;fontColor=#F08705;strokeColor=#23445D;strokeWidth=2;fontStyle=0" parent="1" source="54" target="56" edge="1">
          <mxGeometry relative="1" as="geometry" />
        </mxCell>
        <mxCell id="127" style="edgeStyle=orthogonalEdgeStyle;rounded=0;html=1;startArrow=none;startFill=0;endArrow=none;endFill=0;fontSize=18;fontColor=#F08705;strokeColor=#23445D;strokeWidth=2;curved=1;fontStyle=0" parent="1" source="78" target="56" edge="1">
          <mxGeometry relative="1" as="geometry">
            <Array as="points">
              <mxPoint x="68" y="1049" />
              <mxPoint x="68" y="904" />
            </Array>
          </mxGeometry>
        </mxCell>
        <mxCell id="128" style="edgeStyle=orthogonalEdgeStyle;rounded=0;html=1;startArrow=none;startFill=0;endArrow=none;endFill=0;fontSize=18;fontColor=#F08705;strokeColor=#23445D;strokeWidth=2;curved=1;fontStyle=0" parent="1" source="77" target="56" edge="1">
          <mxGeometry relative="1" as="geometry" />
        </mxCell>
        <mxCell id="129" style="edgeStyle=orthogonalEdgeStyle;rounded=0;html=1;startArrow=none;startFill=0;endArrow=none;endFill=0;fontSize=18;fontColor=#F08705;strokeColor=#23445D;strokeWidth=2;curved=1;fontStyle=0" parent="1" source="76" target="56" edge="1">
          <mxGeometry relative="1" as="geometry" />
        </mxCell>
        <mxCell id="130" value="" style="image;html=1;image=img/lib/clip_art/networking/Router_128x128.png;shadow=0;strokeColor=#000000;fillColor=#FFFFFF;gradientColor=none;fontSize=18;fontColor=#F08705;fontStyle=0" parent="1" vertex="1">
          <mxGeometry x="-190" y="1164" width="80" height="80" as="geometry" />
        </mxCell>
        <mxCell id="131" value="" style="image;html=1;image=img/lib/clip_art/networking/Router_128x128.png;shadow=0;strokeColor=#000000;fillColor=#FFFFFF;gradientColor=none;fontSize=18;fontColor=#F08705;fontStyle=0" parent="1" vertex="1">
          <mxGeometry x="-276" y="1359" width="80" height="80" as="geometry" />
        </mxCell>
        <mxCell id="132" style="edgeStyle=orthogonalEdgeStyle;rounded=0;html=1;startArrow=none;startFill=0;endArrow=none;endFill=0;fontSize=18;fontColor=#F08705;strokeColor=#23445D;strokeWidth=2;curved=1;fontStyle=0" parent="1" source="130" target="19" edge="1">
          <mxGeometry relative="1" as="geometry">
            <Array as="points">
              <mxPoint x="-246" y="1190" />
              <mxPoint x="-246" y="1230" />
            </Array>
          </mxGeometry>
        </mxCell>
        <mxCell id="133" style="edgeStyle=orthogonalEdgeStyle;rounded=0;html=1;startArrow=none;startFill=0;endArrow=none;endFill=0;fontSize=18;fontColor=#F08705;strokeColor=#23445D;strokeWidth=2;curved=1;fontStyle=0" parent="1" source="131" target="19" edge="1">
          <mxGeometry relative="1" as="geometry">
            <Array as="points">
              <mxPoint x="-247" y="1280" />
              <mxPoint x="-362" y="1280" />
            </Array>
          </mxGeometry>
        </mxCell>
        <mxCell id="134" value="" style="edgeStyle=elbowEdgeStyle;strokeWidth=2;rounded=0;endArrow=none;startArrow=none;startSize=10;endSize=10;dashed=0;html=1;strokeColor=#23445D;fontSize=18;fontColor=#F08705;startFill=0;endFill=0;fontStyle=0" parent="1" source="67" target="70" edge="1">
          <mxGeometry relative="1" as="geometry">
            <mxPoint x="-414.52380952380963" y="855" as="sourcePoint" />
            <mxPoint x="-414.52380952380963" y="884.7619047619048" as="targetPoint" />
          </mxGeometry>
        </mxCell>
        <mxCell id="135" value="" style="edgeStyle=elbowEdgeStyle;strokeWidth=2;rounded=0;endArrow=none;startArrow=none;startSize=10;endSize=10;dashed=0;html=1;strokeColor=#23445D;fontSize=18;fontColor=#F08705;startFill=0;endFill=0;fontStyle=0" parent="1" source="68" target="70" edge="1">
          <mxGeometry relative="1" as="geometry">
            <mxPoint x="-230.4132231404958" y="1253.9669421487604" as="sourcePoint" />
            <mxPoint x="-230.4132231404958" y="1297.7685950413222" as="targetPoint" />
          </mxGeometry>
        </mxCell>
        <mxCell id="136" value="" style="edgeStyle=elbowEdgeStyle;strokeWidth=2;rounded=0;endArrow=none;startArrow=none;startSize=10;endSize=10;dashed=0;html=1;strokeColor=#23445D;fontSize=18;fontColor=#F08705;startFill=0;endFill=0;fontStyle=0" parent="1" source="69" target="70" edge="1">
          <mxGeometry relative="1" as="geometry">
            <mxPoint x="-220.4132231404958" y="1263.9669421487604" as="sourcePoint" />
            <mxPoint x="-220.4132231404958" y="1307.7685950413222" as="targetPoint" />
          </mxGeometry>
        </mxCell>
        <mxCell id="137" value="" style="edgeStyle=elbowEdgeStyle;strokeWidth=2;rounded=0;endArrow=none;startArrow=none;startSize=10;endSize=10;dashed=0;html=1;strokeColor=#23445D;fontSize=18;fontColor=#F08705;startFill=0;endFill=0;fontStyle=0" parent="1" source="130" target="70" edge="1">
          <mxGeometry relative="1" as="geometry">
            <mxPoint x="-210.4132231404958" y="1273.9669421487604" as="sourcePoint" />
            <mxPoint x="-210.4132231404958" y="1317.7685950413222" as="targetPoint" />
          </mxGeometry>
        </mxCell>
        <mxCell id="138" value="" style="edgeStyle=elbowEdgeStyle;strokeWidth=2;rounded=0;endArrow=none;startArrow=none;startSize=10;endSize=10;dashed=0;html=1;strokeColor=#23445D;fontSize=18;fontColor=#F08705;startFill=0;endFill=0;fontStyle=0" parent="1" source="71" target="74" edge="1">
          <mxGeometry relative="1" as="geometry">
            <mxPoint x="-221.4132231404958" y="1294.9669421487604" as="sourcePoint" />
            <mxPoint x="-221.4132231404958" y="1338.7685950413222" as="targetPoint" />
          </mxGeometry>
        </mxCell>
        <mxCell id="139" value="" style="edgeStyle=elbowEdgeStyle;strokeWidth=2;rounded=0;endArrow=none;startArrow=none;startSize=10;endSize=10;dashed=0;html=1;strokeColor=#23445D;fontSize=18;fontColor=#F08705;startFill=0;endFill=0;fontStyle=0" parent="1" source="72" target="74" edge="1">
          <mxGeometry relative="1" as="geometry">
            <mxPoint x="-211.4132231404958" y="1304.9669421487604" as="sourcePoint" />
            <mxPoint x="-211.4132231404958" y="1348.7685950413222" as="targetPoint" />
          </mxGeometry>
        </mxCell>
        <mxCell id="140" value="" style="edgeStyle=elbowEdgeStyle;strokeWidth=2;rounded=0;endArrow=none;startArrow=none;startSize=10;endSize=10;dashed=0;html=1;strokeColor=#23445D;fontSize=18;fontColor=#F08705;startFill=0;endFill=0;fontStyle=0" parent="1" source="73" target="74" edge="1">
          <mxGeometry relative="1" as="geometry">
            <mxPoint x="-201.4132231404958" y="1314.9669421487604" as="sourcePoint" />
            <mxPoint x="-201.4132231404958" y="1358.7685950413222" as="targetPoint" />
          </mxGeometry>
        </mxCell>
        <mxCell id="141" value="" style="edgeStyle=elbowEdgeStyle;strokeWidth=2;rounded=0;endArrow=none;startArrow=none;startSize=10;endSize=10;dashed=0;html=1;strokeColor=#23445D;fontSize=18;fontColor=#F08705;startFill=0;endFill=0;fontStyle=0" parent="1" source="131" target="74" edge="1">
          <mxGeometry relative="1" as="geometry">
            <mxPoint x="-191.4132231404958" y="1324.9669421487604" as="sourcePoint" />
            <mxPoint x="-191.4132231404958" y="1368.7685950413222" as="targetPoint" />
          </mxGeometry>
        </mxCell>
        <mxCell id="142" style="edgeStyle=none;rounded=0;html=1;startArrow=none;startFill=0;endArrow=none;endFill=0;fontSize=18;fontColor=#F08705;strokeColor=#23445D;strokeWidth=2;fontStyle=0" parent="1" source="53" target="75" edge="1">
          <mxGeometry relative="1" as="geometry" />
        </mxCell>
        <mxCell id="143" value="" style="edgeStyle=elbowEdgeStyle;strokeWidth=2;rounded=0;endArrow=none;startArrow=none;startSize=10;endSize=10;dashed=0;html=1;strokeColor=#23445D;fontSize=18;fontColor=#F08705;startFill=0;endFill=0;fontStyle=0" parent="1" source="59" target="62" edge="1">
          <mxGeometry relative="1" as="geometry">
            <mxPoint x="-948.9173553719008" y="843.8760330578511" as="sourcePoint" />
            <mxPoint x="-948.9173553719008" y="884.3719008264463" as="targetPoint" />
          </mxGeometry>
        </mxCell>
        <mxCell id="144" value="" style="edgeStyle=elbowEdgeStyle;strokeWidth=2;rounded=0;endArrow=none;startArrow=none;startSize=10;endSize=10;dashed=0;html=1;strokeColor=#23445D;fontSize=18;fontColor=#F08705;startFill=0;endFill=0;fontStyle=0" parent="1" source="60" target="62" edge="1">
          <mxGeometry relative="1" as="geometry">
            <mxPoint x="-1083.6280991735537" y="1285.198347107438" as="sourcePoint" />
            <mxPoint x="-1083.6280991735537" y="1314.9504132231405" as="targetPoint" />
          </mxGeometry>
        </mxCell>
        <mxCell id="145" value="" style="edgeStyle=elbowEdgeStyle;strokeWidth=2;rounded=0;endArrow=none;startArrow=none;startSize=10;endSize=10;dashed=0;html=1;strokeColor=#23445D;fontSize=18;fontColor=#F08705;startFill=0;endFill=0;fontStyle=0" parent="1" source="61" target="62" edge="1">
          <mxGeometry relative="1" as="geometry">
            <mxPoint x="-994.3719008264463" y="1285.198347107438" as="sourcePoint" />
            <mxPoint x="-994.3719008264463" y="1314.9504132231405" as="targetPoint" />
          </mxGeometry>
        </mxCell>
        <mxCell id="146" value="" style="edgeStyle=elbowEdgeStyle;strokeWidth=2;rounded=0;endArrow=none;startArrow=none;startSize=10;endSize=10;dashed=0;html=1;strokeColor=#23445D;fontSize=18;fontColor=#F08705;startFill=0;endFill=0;fontStyle=0" parent="1" source="57" target="62" edge="1">
          <mxGeometry relative="1" as="geometry">
            <mxPoint x="-984.3719008264463" y="1295.198347107438" as="sourcePoint" />
            <mxPoint x="-984.3719008264463" y="1324.9504132231405" as="targetPoint" />
          </mxGeometry>
        </mxCell>
        <mxCell id="147" value="" style="edgeStyle=elbowEdgeStyle;strokeWidth=2;rounded=0;endArrow=none;startArrow=none;startSize=10;endSize=10;dashed=0;html=1;strokeColor=#23445D;fontSize=18;fontColor=#F08705;startFill=0;endFill=0;fontStyle=0" parent="1" source="63" target="66" edge="1">
          <mxGeometry relative="1" as="geometry">
            <mxPoint x="-980.3719008264463" y="1339.198347107438" as="sourcePoint" />
            <mxPoint x="-980.3719008264463" y="1368.9504132231405" as="targetPoint" />
          </mxGeometry>
        </mxCell>
        <mxCell id="148" value="" style="edgeStyle=elbowEdgeStyle;strokeWidth=2;rounded=0;endArrow=none;startArrow=none;startSize=10;endSize=10;dashed=0;html=1;strokeColor=#23445D;fontSize=18;fontColor=#F08705;startFill=0;endFill=0;fontStyle=0" parent="1" source="64" target="66" edge="1">
          <mxGeometry relative="1" as="geometry">
            <mxPoint x="-970.3719008264463" y="1349.198347107438" as="sourcePoint" />
            <mxPoint x="-970.3719008264463" y="1378.9504132231405" as="targetPoint" />
          </mxGeometry>
        </mxCell>
        <mxCell id="149" value="" style="edgeStyle=elbowEdgeStyle;strokeWidth=2;rounded=0;endArrow=none;startArrow=none;startSize=10;endSize=10;dashed=0;html=1;strokeColor=#23445D;fontSize=18;fontColor=#F08705;startFill=0;endFill=0;fontStyle=0" parent="1" source="65" target="66" edge="1">
          <mxGeometry relative="1" as="geometry">
            <mxPoint x="-960.3719008264463" y="1359.198347107438" as="sourcePoint" />
            <mxPoint x="-960.3719008264463" y="1388.9504132231405" as="targetPoint" />
          </mxGeometry>
        </mxCell>
        <mxCell id="150" value="" style="edgeStyle=elbowEdgeStyle;strokeWidth=2;rounded=0;endArrow=none;startArrow=none;startSize=10;endSize=10;dashed=0;html=1;strokeColor=#23445D;fontSize=18;fontColor=#F08705;startFill=0;endFill=0;fontStyle=0" parent="1" source="75" target="66" edge="1">
          <mxGeometry relative="1" as="geometry">
            <mxPoint x="-950.3719008264463" y="1369.198347107438" as="sourcePoint" />
            <mxPoint x="-950.3719008264463" y="1398.9504132231405" as="targetPoint" />
          </mxGeometry>
        </mxCell>
        <mxCell id="151" value="" style="edgeStyle=elbowEdgeStyle;strokeWidth=2;rounded=0;endArrow=none;startArrow=none;startSize=10;endSize=10;dashed=0;html=1;strokeColor=#23445D;fontSize=18;fontColor=#F08705;startFill=0;endFill=0;fontStyle=0" parent="1" source="22" target="20" edge="1">
          <mxGeometry relative="1" as="geometry">
            <mxPoint x="-841.4202898550723" y="566.6811594202899" as="sourcePoint" />
            <mxPoint x="-841.4202898550723" y="620.3043478260869" as="targetPoint" />
          </mxGeometry>
        </mxCell>
        <mxCell id="152" value="" style="edgeStyle=elbowEdgeStyle;strokeWidth=2;rounded=0;endArrow=none;startArrow=none;startSize=10;endSize=10;dashed=0;html=1;strokeColor=#23445D;fontSize=18;fontColor=#F08705;startFill=0;endFill=0;fontStyle=0" parent="1" source="84" target="46" edge="1">
          <mxGeometry relative="1" as="geometry">
            <mxPoint x="-831.4202898550723" y="576.6811594202899" as="sourcePoint" />
            <mxPoint x="-831.4202898550723" y="630.3043478260869" as="targetPoint" />
          </mxGeometry>
        </mxCell>
        <mxCell id="153" value="" style="edgeStyle=elbowEdgeStyle;strokeWidth=2;rounded=0;endArrow=none;startArrow=none;startSize=10;endSize=10;dashed=0;html=1;strokeColor=#23445D;fontSize=18;fontColor=#F08705;startFill=0;endFill=0;fontStyle=0" parent="1" source="48" target="55" edge="1">
          <mxGeometry relative="1" as="geometry">
            <mxPoint x="-901.5121951219512" y="943.6341463414635" as="sourcePoint" />
            <mxPoint x="-901.5121951219512" y="983.8780487804879" as="targetPoint" />
          </mxGeometry>
        </mxCell>
        <mxCell id="154" value="" style="image;html=1;image=img/lib/clip_art/networking/Router_128x128.png;shadow=0;strokeColor=#000000;fillColor=#FFFFFF;gradientColor=none;fontSize=18;fontColor=#F08705;fontStyle=0" parent="1" vertex="1">
          <mxGeometry x="-1162" y="854" width="80" height="80" as="geometry" />
        </mxCell>
        <mxCell id="155" value="" style="edgeStyle=elbowEdgeStyle;strokeWidth=2;rounded=0;endArrow=none;startArrow=none;startSize=10;endSize=10;dashed=0;html=1;strokeColor=#23445D;fontSize=18;fontColor=#F08705;startFill=0;endFill=0;fontStyle=0" parent="1" source="154" target="48" edge="1">
          <mxGeometry relative="1" as="geometry">
            <mxPoint x="-964.4202898550723" y="771.6811594202899" as="sourcePoint" />
            <mxPoint x="-1106.7073170731708" y="973.7560975609755" as="targetPoint" />
          </mxGeometry>
        </mxCell>
        <mxCell id="156" value="" style="image;html=1;image=img/lib/clip_art/computers/Workstation_128x128.png;shadow=0;strokeColor=#000000;fillColor=#FFFFFF;gradientColor=none;fontSize=18;fontColor=#F08705;fontStyle=0" parent="1" vertex="1">
          <mxGeometry x="-1342" y="1179" width="80" height="80" as="geometry" />
        </mxCell>
        <mxCell id="157" value="" style="image;html=1;image=img/lib/clip_art/computers/Workstation_128x128.png;shadow=0;strokeColor=#000000;fillColor=#FFFFFF;gradientColor=none;fontSize=18;fontColor=#F08705;fontStyle=0" parent="1" vertex="1">
          <mxGeometry x="-1342" y="1281" width="80" height="80" as="geometry" />
        </mxCell>
        <mxCell id="158" style="edgeStyle=orthogonalEdgeStyle;rounded=0;html=1;startArrow=none;startFill=0;endArrow=none;endFill=0;fontSize=18;fontColor=#F08705;strokeColor=#23445D;strokeWidth=2;curved=1;fontStyle=0" parent="1" source="156" target="55" edge="1">
          <mxGeometry relative="1" as="geometry">
            <Array as="points">
              <mxPoint x="-1172" y="1219" />
              <mxPoint x="-1172" y="1060" />
            </Array>
          </mxGeometry>
        </mxCell>
        <mxCell id="159" style="edgeStyle=orthogonalEdgeStyle;rounded=0;html=1;startArrow=none;startFill=0;endArrow=none;endFill=0;fontSize=18;fontColor=#F08705;strokeColor=#23445D;strokeWidth=2;curved=1;fontStyle=0" parent="1" source="157" target="55" edge="1">
          <mxGeometry relative="1" as="geometry">
            <Array as="points">
              <mxPoint x="-1162" y="1321" />
              <mxPoint x="-1162" y="1060" />
            </Array>
          </mxGeometry>
        </mxCell>
        <mxCell id="160" value="" style="image;html=1;image=img/lib/clip_art/networking/UPS_128x128.png;shadow=0;strokeColor=#000000;fillColor=#F2F2F2;gradientColor=none;fontSize=18;fontColor=#F08705;fontStyle=0" parent="1" vertex="1">
          <mxGeometry x="-172" y="1039" width="80" height="80" as="geometry" />
        </mxCell>
        <mxCell id="161" style="edgeStyle=orthogonalEdgeStyle;rounded=0;jumpStyle=none;html=1;exitX=0.5;exitY=1;entryX=1;entryY=0.5;shadow=0;labelBackgroundColor=#ffffff;startArrow=none;startFill=0;endArrow=none;endFill=0;endSize=10;jettySize=auto;orthogonalLoop=1;strokeColor=#2F5B7C;strokeWidth=2;fillColor=#F08705;fontFamily=Helvetica;fontSize=14;fontColor=#F08705;align=left;curved=1;" parent="1" source="162" target="46" edge="1">
          <mxGeometry relative="1" as="geometry" />
        </mxCell>
        <mxCell id="162" value="" style="image;html=1;image=img/lib/clip_art/networking/Concentrator_128x128.png;shadow=0;strokeColor=#000000;fillColor=#F2F2F2;gradientColor=none;fontSize=18;fontColor=#F08705;fontStyle=0" parent="1" vertex="1">
          <mxGeometry x="-582" y="669" width="80" height="80" as="geometry" />
        </mxCell>
        <mxCell id="163" style="edgeStyle=orthogonalEdgeStyle;rounded=0;html=1;entryX=1;entryY=0.5;startArrow=none;startFill=0;endArrow=none;endFill=0;fontSize=18;fontColor=#F08705;strokeColor=#23445D;strokeWidth=2;curved=1;fontStyle=0" parent="1" source="162" target="20" edge="1">
          <mxGeometry relative="1" as="geometry">
            <Array as="points">
              <mxPoint x="-552" y="620" />
            </Array>
          </mxGeometry>
        </mxCell>
        <mxCell id="UbUL-3o23nfrx7GC4o43-207" style="edgeStyle=none;shape=link;rounded=0;orthogonalLoop=1;jettySize=auto;html=1;exitX=0.5;exitY=1;exitDx=0;exitDy=0;" edge="1" parent="1" source="UbUL-3o23nfrx7GC4o43-205">
          <mxGeometry relative="1" as="geometry">
            <mxPoint x="2037.35" y="1680" as="targetPoint" />
          </mxGeometry>
        </mxCell>
        <mxCell id="UbUL-3o23nfrx7GC4o43-205" value="" style="ellipse;whiteSpace=wrap;html=1;" vertex="1" parent="1">
          <mxGeometry x="1427.35" y="760" width="1218.46" height="789" as="geometry" />
        </mxCell>
        <mxCell id="164" style="edgeStyle=orthogonalEdgeStyle;rounded=0;html=1;entryX=0;entryY=0.5;startArrow=none;startFill=0;endArrow=none;endFill=0;fontSize=18;fontColor=#F08705;strokeColor=#23445D;strokeWidth=2;curved=1;fontStyle=0" parent="1" source="162" target="45" edge="1">
          <mxGeometry relative="1" as="geometry">
            <Array as="points">
              <mxPoint x="-532" y="620" />
            </Array>
          </mxGeometry>
        </mxCell>
        <mxCell id="165" style="edgeStyle=orthogonalEdgeStyle;rounded=0;html=1;entryX=0;entryY=0.5;startArrow=none;startFill=0;endArrow=none;endFill=0;fontSize=18;fontColor=#F08705;strokeColor=#23445D;strokeWidth=2;curved=1;fontStyle=0" parent="1" source="162" target="47" edge="1">
          <mxGeometry relative="1" as="geometry">
            <Array as="points">
              <mxPoint x="-532" y="789" />
            </Array>
          </mxGeometry>
        </mxCell>
        <mxCell id="166" value="" style="edgeStyle=elbowEdgeStyle;strokeWidth=2;rounded=0;endArrow=none;startArrow=none;startSize=10;endSize=10;dashed=0;html=1;strokeColor=#23445D;fontSize=18;fontColor=#F08705;startFill=0;endFill=0;fontStyle=0" parent="1" source="48" target="160" edge="1">
          <mxGeometry relative="1" as="geometry">
            <mxPoint x="-227.1219512195123" y="953.390243902439" as="sourcePoint" />
            <mxPoint x="-227.1219512195123" y="983.8780487804878" as="targetPoint" />
          </mxGeometry>
        </mxCell>
        <mxCell id="167" value="HEAD&amp;nbsp;&lt;div&gt;OFFICE&lt;/div&gt;" style="text;html=1;strokeColor=none;fillColor=none;align=center;verticalAlign=middle;whiteSpace=wrap;overflow=hidden;shadow=0;fontSize=36;fontColor=#AE4132;fontStyle=0" parent="1" vertex="1">
          <mxGeometry x="-642" y="1029" width="240" height="110" as="geometry" />
        </mxCell>
        <mxCell id="169" value="" style="image;html=1;image=img/lib/clip_art/computers/Workstation_128x128.png;shadow=0;strokeColor=#000000;fillColor=#FFFFFF;gradientColor=none;fontSize=18;fontColor=#F08705;fontStyle=0" parent="1" vertex="1">
          <mxGeometry x="128" y="701" width="80" height="80" as="geometry" />
        </mxCell>
        <mxCell id="170" style="edgeStyle=orthogonalEdgeStyle;rounded=0;html=1;startArrow=none;startFill=0;endArrow=none;endFill=0;fontSize=18;fontColor=#F08705;strokeColor=#23445D;strokeWidth=2;curved=1;fontStyle=0" parent="1" source="169" target="56" edge="1">
          <mxGeometry relative="1" as="geometry">
            <mxPoint x="28.588235294117794" y="813.529411764706" as="targetPoint" />
            <Array as="points">
              <mxPoint x="68" y="740" />
              <mxPoint x="68" y="904" />
            </Array>
          </mxGeometry>
        </mxCell>
        <mxCell id="171" style="edgeStyle=orthogonalEdgeStyle;rounded=0;jumpStyle=none;html=1;exitX=0;exitY=0.5;entryX=0;entryY=0.5;shadow=0;labelBackgroundColor=none;startArrow=none;startFill=0;endArrow=classic;endFill=1;endSize=6;jettySize=auto;orthogonalLoop=1;strokeColor=#23445D;strokeWidth=2;fillColor=#F08705;fontFamily=Helvetica;fontSize=14;fontColor=#F08705;align=left;fontStyle=0" parent="1" edge="1">
          <mxGeometry relative="1" as="geometry">
            <mxPoint x="-1255" y="417.5" as="sourcePoint" />
            <mxPoint x="-1255" y="417.5" as="targetPoint" />
          </mxGeometry>
        </mxCell>
        <mxCell id="172" style="edgeStyle=orthogonalEdgeStyle;rounded=0;jumpStyle=none;html=1;exitX=0.75;exitY=0;entryX=0.75;entryY=0;shadow=0;labelBackgroundColor=none;startArrow=none;startFill=0;endArrow=classic;endFill=1;endSize=6;jettySize=auto;orthogonalLoop=1;strokeColor=#23445D;strokeWidth=2;fillColor=#F08705;fontFamily=Helvetica;fontSize=14;fontColor=#FFFFFF;align=left;fontStyle=0" parent="1" source="27" target="27" edge="1">
          <mxGeometry relative="1" as="geometry" />
        </mxCell>
        <mxCell id="UbUL-3o23nfrx7GC4o43-204" style="edgeStyle=none;shape=link;rounded=0;orthogonalLoop=1;jettySize=auto;html=1;" edge="1" parent="1">
          <mxGeometry relative="1" as="geometry">
            <mxPoint x="2872.35" y="1680" as="targetPoint" />
            <mxPoint x="1952.35" y="1688" as="sourcePoint" />
          </mxGeometry>
        </mxCell>
        <mxCell id="UbUL-3o23nfrx7GC4o43-198" style="edgeStyle=none;shape=link;rounded=0;orthogonalLoop=1;jettySize=auto;html=1;exitX=0.5;exitY=1;exitDx=0;exitDy=0;entryX=0.25;entryY=0;entryDx=0;entryDy=0;" edge="1" parent="1" source="UbUL-3o23nfrx7GC4o43-173" target="UbUL-3o23nfrx7GC4o43-196">
          <mxGeometry relative="1" as="geometry" />
        </mxCell>
        <mxCell id="UbUL-3o23nfrx7GC4o43-173" value="Authentication Server&amp;nbsp;" style="image;html=1;image=img/lib/clip_art/computers/Server_Rack_128x128.png;shadow=0;strokeColor=#000000;fillColor=#FFFFFF;gradientColor=none;fontSize=18;fontColor=#F08705;fontStyle=0" vertex="1" parent="1">
          <mxGeometry x="1912.35" y="907.5" width="121.5" height="121.5" as="geometry" />
        </mxCell>
        <mxCell id="UbUL-3o23nfrx7GC4o43-197" style="edgeStyle=none;shape=link;rounded=0;orthogonalLoop=1;jettySize=auto;html=1;exitX=0.5;exitY=1;exitDx=0;exitDy=0;entryX=0;entryY=0.25;entryDx=0;entryDy=0;" edge="1" parent="1" source="UbUL-3o23nfrx7GC4o43-174" target="UbUL-3o23nfrx7GC4o43-196">
          <mxGeometry relative="1" as="geometry" />
        </mxCell>
        <mxCell id="UbUL-3o23nfrx7GC4o43-174" value="Authentication Server" style="image;html=1;image=img/lib/clip_art/computers/Server_Rack_128x128.png;shadow=0;strokeColor=#000000;fillColor=#FFFFFF;gradientColor=none;fontSize=18;fontColor=#F08705;fontStyle=0" vertex="1" parent="1">
          <mxGeometry x="1698.35" y="907.5" width="121.5" height="121.5" as="geometry" />
        </mxCell>
        <mxCell id="UbUL-3o23nfrx7GC4o43-199" style="edgeStyle=none;shape=link;rounded=0;orthogonalLoop=1;jettySize=auto;html=1;exitX=0.5;exitY=1;exitDx=0;exitDy=0;entryX=0.75;entryY=0;entryDx=0;entryDy=0;" edge="1" parent="1" source="UbUL-3o23nfrx7GC4o43-177" target="UbUL-3o23nfrx7GC4o43-196">
          <mxGeometry relative="1" as="geometry" />
        </mxCell>
        <mxCell id="UbUL-3o23nfrx7GC4o43-177" value="File Sever" style="image;html=1;image=img/lib/clip_art/computers/Server_Rack_128x128.png;shadow=0;strokeColor=#000000;fillColor=#FFFFFF;gradientColor=none;fontSize=18;fontColor=#F08705;fontStyle=0" vertex="1" parent="1">
          <mxGeometry x="2142.35" y="907.5" width="121.5" height="121.5" as="geometry" />
        </mxCell>
        <mxCell id="UbUL-3o23nfrx7GC4o43-200" style="edgeStyle=none;shape=link;rounded=0;orthogonalLoop=1;jettySize=auto;html=1;exitX=0.5;exitY=1;exitDx=0;exitDy=0;entryX=1;entryY=0.25;entryDx=0;entryDy=0;" edge="1" parent="1" source="UbUL-3o23nfrx7GC4o43-178" target="UbUL-3o23nfrx7GC4o43-196">
          <mxGeometry relative="1" as="geometry" />
        </mxCell>
        <mxCell id="UbUL-3o23nfrx7GC4o43-178" value="File Sever" style="image;html=1;image=img/lib/clip_art/computers/Server_Rack_128x128.png;shadow=0;strokeColor=#000000;fillColor=#FFFFFF;gradientColor=none;fontSize=18;fontColor=#F08705;fontStyle=0" vertex="1" parent="1">
          <mxGeometry x="2322.35" y="909.5" width="121.5" height="121.5" as="geometry" />
        </mxCell>
        <mxCell id="UbUL-3o23nfrx7GC4o43-183" value="Tape library&lt;div&gt;&lt;br&gt;&lt;/div&gt;" style="image;html=1;image=img/lib/clip_art/networking/UPS_128x128.png;shadow=0;strokeColor=#000000;fillColor=#F2F2F2;gradientColor=none;fontSize=18;fontColor=#F08705;fontStyle=0" vertex="1" parent="1">
          <mxGeometry x="1662.35" y="1306" width="126" height="126" as="geometry" />
        </mxCell>
        <mxCell id="UbUL-3o23nfrx7GC4o43-202" style="edgeStyle=none;shape=link;rounded=0;orthogonalLoop=1;jettySize=auto;html=1;exitX=0;exitY=0.5;exitDx=0;exitDy=0;entryX=1;entryY=0.5;entryDx=0;entryDy=0;" edge="1" parent="1" source="UbUL-3o23nfrx7GC4o43-184" target="UbUL-3o23nfrx7GC4o43-183">
          <mxGeometry relative="1" as="geometry" />
        </mxCell>
        <mxCell id="UbUL-3o23nfrx7GC4o43-184" value="RAID" style="image;html=1;image=img/lib/clip_art/computers/Server_Tower_128x128.png;shadow=0;strokeColor=#000000;fillColor=#FFFFFF;gradientColor=none;fontSize=18;fontColor=#F08705;fontStyle=0" vertex="1" parent="1">
          <mxGeometry x="1872.35" y="1309" width="126.32" height="120" as="geometry" />
        </mxCell>
        <mxCell id="UbUL-3o23nfrx7GC4o43-201" style="edgeStyle=none;shape=link;rounded=0;orthogonalLoop=1;jettySize=auto;html=1;exitX=0.25;exitY=1;exitDx=0;exitDy=0;entryX=1;entryY=0.5;entryDx=0;entryDy=0;" edge="1" parent="1" source="UbUL-3o23nfrx7GC4o43-196" target="UbUL-3o23nfrx7GC4o43-184">
          <mxGeometry relative="1" as="geometry" />
        </mxCell>
        <mxCell id="UbUL-3o23nfrx7GC4o43-222" style="edgeStyle=none;shape=link;rounded=0;orthogonalLoop=1;jettySize=auto;html=1;exitX=0.5;exitY=0;exitDx=0;exitDy=0;" edge="1" parent="1" source="UbUL-3o23nfrx7GC4o43-220">
          <mxGeometry relative="1" as="geometry">
            <mxPoint x="1954.35" y="1690" as="targetPoint" />
          </mxGeometry>
        </mxCell>
        <mxCell id="UbUL-3o23nfrx7GC4o43-220" value="" style="ellipse;whiteSpace=wrap;html=1;" vertex="1" parent="1">
          <mxGeometry x="1400" y="1905" width="1110" height="690" as="geometry" />
        </mxCell>
        <mxCell id="UbUL-3o23nfrx7GC4o43-196" value="&lt;font style=&quot;font-size: 18px;&quot;&gt;SAN HUB&lt;/font&gt;" style="image;aspect=fixed;perimeter=ellipsePerimeter;html=1;align=center;shadow=0;dashed=0;spacingTop=3;image=img/lib/active_directory/wiring_hub.svg;" vertex="1" parent="1">
          <mxGeometry x="2025" y="1166.52" width="143.35" height="97.48" as="geometry" />
        </mxCell>
        <mxCell id="UbUL-3o23nfrx7GC4o43-206" value="&lt;font style=&quot;font-size: 40px;&quot;&gt;Storage Area Network&lt;/font&gt;" style="text;html=1;align=center;verticalAlign=middle;whiteSpace=wrap;rounded=0;" vertex="1" parent="1">
          <mxGeometry x="2082.35" y="1328" width="310" height="150" as="geometry" />
        </mxCell>
        <mxCell id="UbUL-3o23nfrx7GC4o43-209" value="&lt;font style=&quot;font-size: 18px;&quot;&gt;IT department laptop&lt;/font&gt;" style="image;html=1;image=img/lib/clip_art/computers/Laptop_128x128.png" vertex="1" parent="1">
          <mxGeometry x="1522.35" y="2180" width="140" height="140" as="geometry" />
        </mxCell>
        <mxCell id="UbUL-3o23nfrx7GC4o43-210" value="&lt;font style=&quot;font-size: 18px;&quot;&gt;IT department laptop&lt;/font&gt;" style="image;html=1;image=img/lib/clip_art/computers/Laptop_128x128.png" vertex="1" parent="1">
          <mxGeometry x="1858.67" y="2400" width="140" height="140" as="geometry" />
        </mxCell>
        <mxCell id="UbUL-3o23nfrx7GC4o43-211" value="&lt;font style=&quot;font-size: 18px;&quot;&gt;IT department laptop&lt;/font&gt;" style="image;html=1;image=img/lib/clip_art/computers/Laptop_128x128.png" vertex="1" parent="1">
          <mxGeometry x="2182.35" y="2330" width="140" height="140" as="geometry" />
        </mxCell>
        <mxCell id="UbUL-3o23nfrx7GC4o43-218" style="edgeStyle=none;shape=link;rounded=0;orthogonalLoop=1;jettySize=auto;html=1;exitX=0.5;exitY=1;exitDx=0;exitDy=0;" edge="1" parent="1" source="UbUL-3o23nfrx7GC4o43-212" target="UbUL-3o23nfrx7GC4o43-210">
          <mxGeometry relative="1" as="geometry" />
        </mxCell>
        <mxCell id="UbUL-3o23nfrx7GC4o43-232" style="edgeStyle=none;shape=link;rounded=0;orthogonalLoop=1;jettySize=auto;html=1;exitX=0.5;exitY=0;exitDx=0;exitDy=0;" edge="1" parent="1" source="UbUL-3o23nfrx7GC4o43-231">
          <mxGeometry relative="1" as="geometry">
            <mxPoint x="2872.85" y="1670" as="targetPoint" />
          </mxGeometry>
        </mxCell>
        <mxCell id="UbUL-3o23nfrx7GC4o43-231" value="" style="ellipse;whiteSpace=wrap;html=1;" vertex="1" parent="1">
          <mxGeometry x="2542.35" y="2010" width="660" height="480" as="geometry" />
        </mxCell>
        <mxCell id="UbUL-3o23nfrx7GC4o43-219" style="edgeStyle=none;shape=link;rounded=0;orthogonalLoop=1;jettySize=auto;html=1;exitX=1;exitY=0.5;exitDx=0;exitDy=0;entryX=0;entryY=0.5;entryDx=0;entryDy=0;" edge="1" parent="1" source="UbUL-3o23nfrx7GC4o43-212" target="UbUL-3o23nfrx7GC4o43-211">
          <mxGeometry relative="1" as="geometry" />
        </mxCell>
        <mxCell id="UbUL-3o23nfrx7GC4o43-290" style="edgeStyle=none;shape=link;rounded=0;orthogonalLoop=1;jettySize=auto;html=1;exitX=0.5;exitY=0;exitDx=0;exitDy=0;entryX=0.5;entryY=1;entryDx=0;entryDy=0;" edge="1" parent="1" source="UbUL-3o23nfrx7GC4o43-212" target="UbUL-3o23nfrx7GC4o43-289">
          <mxGeometry relative="1" as="geometry" />
        </mxCell>
        <mxCell id="UbUL-3o23nfrx7GC4o43-212" value="&lt;font style=&quot;font-size: 19px;&quot;&gt;Wireless Router&lt;/font&gt;" style="image;html=1;image=img/lib/clip_art/networking/Wireless_Router_128x128.png" vertex="1" parent="1">
          <mxGeometry x="1882.35" y="2180" width="160" height="160" as="geometry" />
        </mxCell>
        <mxCell id="UbUL-3o23nfrx7GC4o43-217" style="edgeStyle=none;shape=link;rounded=0;orthogonalLoop=1;jettySize=auto;html=1;exitX=1;exitY=0.5;exitDx=0;exitDy=0;entryX=-0.001;entryY=0.659;entryDx=0;entryDy=0;entryPerimeter=0;" edge="1" parent="1" source="UbUL-3o23nfrx7GC4o43-209" target="UbUL-3o23nfrx7GC4o43-212">
          <mxGeometry relative="1" as="geometry" />
        </mxCell>
        <mxCell id="UbUL-3o23nfrx7GC4o43-221" value="&lt;span style=&quot;font-size: 60px;&quot;&gt;HR&lt;/span&gt;" style="text;html=1;align=center;verticalAlign=middle;whiteSpace=wrap;rounded=0;" vertex="1" parent="1">
          <mxGeometry x="1620.35" y="2450" width="200" height="100" as="geometry" />
        </mxCell>
        <mxCell id="UbUL-3o23nfrx7GC4o43-223" value="PC" style="image;html=1;image=img/lib/clip_art/computers/Monitor_Tower_128x128.png;shadow=0;strokeColor=#000000;fillColor=#FFFFFF;gradientColor=none;fontSize=18;fontColor=#F08705;fontStyle=0" vertex="1" parent="1">
          <mxGeometry x="2932.35" y="2250" width="160" height="160" as="geometry" />
        </mxCell>
        <mxCell id="UbUL-3o23nfrx7GC4o43-227" style="edgeStyle=none;shape=link;rounded=0;orthogonalLoop=1;jettySize=auto;html=1;exitX=0.25;exitY=1;exitDx=0;exitDy=0;entryX=0.5;entryY=0;entryDx=0;entryDy=0;" edge="1" parent="1" target="UbUL-3o23nfrx7GC4o43-225">
          <mxGeometry relative="1" as="geometry">
            <mxPoint x="2802.9210401245186" y="2121.651472765385" as="sourcePoint" />
          </mxGeometry>
        </mxCell>
        <mxCell id="UbUL-3o23nfrx7GC4o43-228" style="edgeStyle=none;shape=link;rounded=0;orthogonalLoop=1;jettySize=auto;html=1;exitX=1;exitY=1;exitDx=0;exitDy=0;entryX=0.5;entryY=0;entryDx=0;entryDy=0;" edge="1" parent="1" target="UbUL-3o23nfrx7GC4o43-223">
          <mxGeometry relative="1" as="geometry">
            <mxPoint x="2884.494900774273" y="2112.347931959501" as="sourcePoint" />
          </mxGeometry>
        </mxCell>
        <mxCell id="UbUL-3o23nfrx7GC4o43-225" value="PC" style="image;html=1;image=img/lib/clip_art/computers/Monitor_Tower_128x128.png;shadow=0;strokeColor=#000000;fillColor=#FFFFFF;gradientColor=none;fontSize=18;fontColor=#F08705;fontStyle=0" vertex="1" parent="1">
          <mxGeometry x="2632.35" y="2250" width="160" height="160" as="geometry" />
        </mxCell>
        <mxCell id="UbUL-3o23nfrx7GC4o43-319" style="edgeStyle=none;shape=link;rounded=0;orthogonalLoop=1;jettySize=auto;html=1;exitX=0.5;exitY=1;exitDx=0;exitDy=0;" edge="1" parent="1" source="UbUL-3o23nfrx7GC4o43-234">
          <mxGeometry relative="1" as="geometry">
            <mxPoint x="2870" y="1670" as="targetPoint" />
          </mxGeometry>
        </mxCell>
        <mxCell id="UbUL-3o23nfrx7GC4o43-234" value="&lt;font style=&quot;font-size: 30px;&quot;&gt;Firewall&lt;/font&gt;" style="image;html=1;image=img/lib/clip_art/networking/Firewall_02_128x128.png" vertex="1" parent="1">
          <mxGeometry x="2780" y="1400.5" width="160" height="169" as="geometry" />
        </mxCell>
        <mxCell id="UbUL-3o23nfrx7GC4o43-238" style="edgeStyle=none;shape=link;rounded=0;orthogonalLoop=1;jettySize=auto;html=1;exitX=0;exitY=0;exitDx=0;exitDy=0;" edge="1" parent="1">
          <mxGeometry relative="1" as="geometry">
            <mxPoint x="1562.35" y="1579" as="sourcePoint" />
            <mxPoint x="1562.35" y="1579" as="targetPoint" />
          </mxGeometry>
        </mxCell>
        <mxCell id="UbUL-3o23nfrx7GC4o43-321" style="edgeStyle=none;shape=link;rounded=0;orthogonalLoop=1;jettySize=auto;html=1;exitX=0.5;exitY=1;exitDx=0;exitDy=0;entryX=0.5;entryY=0;entryDx=0;entryDy=0;" edge="1" parent="1" source="UbUL-3o23nfrx7GC4o43-240" target="UbUL-3o23nfrx7GC4o43-302">
          <mxGeometry relative="1" as="geometry" />
        </mxCell>
        <mxCell id="UbUL-3o23nfrx7GC4o43-240" value="&lt;font style=&quot;font-size: 30px;&quot;&gt;Wireless router&lt;/font&gt;" style="image;html=1;image=img/lib/clip_art/networking/Wireless_Router_128x128.png" vertex="1" parent="1">
          <mxGeometry x="3360" y="1125" width="215" height="215" as="geometry" />
        </mxCell>
        <mxCell id="UbUL-3o23nfrx7GC4o43-242" value="&lt;font style=&quot;font-size: 40px;&quot;&gt;Customer&lt;/font&gt;" style="ellipse;whiteSpace=wrap;html=1;" vertex="1" parent="1">
          <mxGeometry x="3130" y="1830" width="290" height="140" as="geometry" />
        </mxCell>
        <mxCell id="UbUL-3o23nfrx7GC4o43-283" value="" style="ellipse;whiteSpace=wrap;html=1;" vertex="1" parent="1">
          <mxGeometry x="2960" y="-1890" width="860" height="670" as="geometry" />
        </mxCell>
        <mxCell id="UbUL-3o23nfrx7GC4o43-277" value="PC" style="image;html=1;image=img/lib/clip_art/computers/Monitor_Tower_128x128.png;shadow=0;strokeColor=#000000;fillColor=#FFFFFF;gradientColor=none;fontSize=18;fontColor=#F08705;fontStyle=0" vertex="1" parent="1">
          <mxGeometry x="3600" y="-1557.5" width="150" height="150" as="geometry" />
        </mxCell>
        <mxCell id="UbUL-3o23nfrx7GC4o43-289" value="&lt;div&gt;&lt;span style=&quot;font-size: 20px;&quot;&gt;Switch&lt;/span&gt;&lt;/div&gt;" style="image;html=1;image=img/lib/clip_art/networking/Switch_128x128.png" vertex="1" parent="1">
          <mxGeometry x="1863.1" y="1875" width="220" height="220" as="geometry" />
        </mxCell>
        <mxCell id="UbUL-3o23nfrx7GC4o43-291" value="&lt;div&gt;&lt;span style=&quot;font-size: 20px;&quot;&gt;Switch&lt;/span&gt;&lt;/div&gt;" style="image;html=1;image=img/lib/clip_art/networking/Switch_128x128.png" vertex="1" parent="1">
          <mxGeometry x="2742.35" y="1990" width="220" height="220" as="geometry" />
        </mxCell>
        <mxCell id="UbUL-3o23nfrx7GC4o43-318" style="edgeStyle=none;shape=link;rounded=0;orthogonalLoop=1;jettySize=auto;html=1;exitX=0.5;exitY=1;exitDx=0;exitDy=0;entryX=0.5;entryY=0;entryDx=0;entryDy=0;" edge="1" parent="1" source="UbUL-3o23nfrx7GC4o43-292" target="UbUL-3o23nfrx7GC4o43-234">
          <mxGeometry relative="1" as="geometry" />
        </mxCell>
        <mxCell id="UbUL-3o23nfrx7GC4o43-292" value="&lt;font style=&quot;font-size: 30px;&quot;&gt;Router&lt;/font&gt;" style="image;html=1;image=img/lib/clip_art/networking/Router_128x128.png" vertex="1" parent="1">
          <mxGeometry x="2769.94" y="1062" width="204.82" height="185" as="geometry" />
        </mxCell>
        <mxCell id="UbUL-3o23nfrx7GC4o43-322" style="edgeStyle=none;shape=link;rounded=0;orthogonalLoop=1;jettySize=auto;html=1;exitX=0.5;exitY=1;exitDx=0;exitDy=0;entryX=0.5;entryY=0;entryDx=0;entryDy=0;" edge="1" parent="1" source="UbUL-3o23nfrx7GC4o43-302" target="UbUL-3o23nfrx7GC4o43-242">
          <mxGeometry relative="1" as="geometry" />
        </mxCell>
        <mxCell id="UbUL-3o23nfrx7GC4o43-302" value="&lt;font style=&quot;font-size: 30px;&quot;&gt;Firewall&lt;/font&gt;" style="image;html=1;image=img/lib/clip_art/networking/Firewall_02_128x128.png" vertex="1" parent="1">
          <mxGeometry x="3260" y="1460" width="160" height="169" as="geometry" />
        </mxCell>
        <mxCell id="UbUL-3o23nfrx7GC4o43-307" value="&lt;font style=&quot;font-size: 60px;&quot;&gt;HK office&lt;/font&gt;" style="text;html=1;align=center;verticalAlign=middle;whiteSpace=wrap;rounded=0;" vertex="1" parent="1">
          <mxGeometry x="2142.35" y="2720" width="697.65" height="180" as="geometry" />
        </mxCell>
        <mxCell id="UbUL-3o23nfrx7GC4o43-317" style="edgeStyle=none;shape=link;rounded=0;orthogonalLoop=1;jettySize=auto;html=1;exitX=0.31;exitY=0.8;exitDx=0;exitDy=0;exitPerimeter=0;entryX=0.5;entryY=0;entryDx=0;entryDy=0;" edge="1" parent="1" source="UbUL-3o23nfrx7GC4o43-308" target="UbUL-3o23nfrx7GC4o43-292">
          <mxGeometry relative="1" as="geometry" />
        </mxCell>
        <mxCell id="UbUL-3o23nfrx7GC4o43-320" style="edgeStyle=none;shape=link;rounded=0;orthogonalLoop=1;jettySize=auto;html=1;exitX=0.8;exitY=0.8;exitDx=0;exitDy=0;exitPerimeter=0;" edge="1" parent="1" source="UbUL-3o23nfrx7GC4o43-308" target="UbUL-3o23nfrx7GC4o43-240">
          <mxGeometry relative="1" as="geometry" />
        </mxCell>
        <mxCell id="UbUL-3o23nfrx7GC4o43-308" value="&lt;font style=&quot;font-size: 40px;&quot;&gt;Internet&lt;/font&gt;" style="ellipse;shape=cloud;whiteSpace=wrap;html=1;" vertex="1" parent="1">
          <mxGeometry x="2800" y="609" width="580" height="381" as="geometry" />
        </mxCell>
        <mxCell id="UbUL-3o23nfrx7GC4o43-407" style="edgeStyle=none;shape=link;rounded=0;orthogonalLoop=1;jettySize=auto;html=1;exitX=0.5;exitY=0;exitDx=0;exitDy=0;" edge="1" parent="1" source="UbUL-3o23nfrx7GC4o43-328" target="UbUL-3o23nfrx7GC4o43-400">
          <mxGeometry relative="1" as="geometry" />
        </mxCell>
        <mxCell id="UbUL-3o23nfrx7GC4o43-328" value="" style="ellipse;whiteSpace=wrap;html=1;" vertex="1" parent="1">
          <mxGeometry x="5120" y="550" width="3170" height="2900" as="geometry" />
        </mxCell>
        <mxCell id="UbUL-3o23nfrx7GC4o43-331" style="edgeStyle=none;shape=link;rounded=0;orthogonalLoop=1;jettySize=auto;html=1;exitX=0.548;exitY=0.006;exitDx=0;exitDy=0;exitPerimeter=0;" edge="1" parent="1" source="UbUL-3o23nfrx7GC4o43-345">
          <mxGeometry relative="1" as="geometry">
            <mxPoint x="6872.35" y="1720" as="targetPoint" />
            <mxPoint x="5952.35" y="1728" as="sourcePoint" />
          </mxGeometry>
        </mxCell>
        <mxCell id="UbUL-3o23nfrx7GC4o43-345" value="" style="ellipse;whiteSpace=wrap;html=1;" vertex="1" parent="1">
          <mxGeometry x="5270" y="1840" width="1230" height="1147.5" as="geometry" />
        </mxCell>
        <mxCell id="UbUL-3o23nfrx7GC4o43-380" style="edgeStyle=none;shape=link;rounded=0;orthogonalLoop=1;jettySize=auto;html=1;exitX=1;exitY=1;exitDx=0;exitDy=0;entryX=0;entryY=0.25;entryDx=0;entryDy=0;" edge="1" parent="1">
          <mxGeometry relative="1" as="geometry">
            <mxPoint x="5530" y="2510" as="sourcePoint" />
            <mxPoint x="5750" y="2795" as="targetPoint" />
          </mxGeometry>
        </mxCell>
        <mxCell id="UbUL-3o23nfrx7GC4o43-381" style="edgeStyle=none;shape=link;rounded=0;orthogonalLoop=1;jettySize=auto;html=1;exitX=1;exitY=0.75;exitDx=0;exitDy=0;entryX=0;entryY=0.5;entryDx=0;entryDy=0;" edge="1" parent="1">
          <mxGeometry relative="1" as="geometry">
            <mxPoint x="5530" y="2475" as="sourcePoint" />
            <mxPoint x="6203" y="2710" as="targetPoint" />
          </mxGeometry>
        </mxCell>
        <mxCell id="UbUL-3o23nfrx7GC4o43-351" style="edgeStyle=none;shape=link;rounded=0;orthogonalLoop=1;jettySize=auto;html=1;exitX=0.5;exitY=1;exitDx=0;exitDy=0;" edge="1" parent="1" source="UbUL-3o23nfrx7GC4o43-356">
          <mxGeometry relative="1" as="geometry">
            <mxPoint x="5832.2807017543855" y="2760" as="targetPoint" />
          </mxGeometry>
        </mxCell>
        <mxCell id="UbUL-3o23nfrx7GC4o43-352" style="edgeStyle=none;shape=link;rounded=0;orthogonalLoop=1;jettySize=auto;html=1;exitX=0.5;exitY=0;exitDx=0;exitDy=0;" edge="1" parent="1" source="UbUL-3o23nfrx7GC4o43-353">
          <mxGeometry relative="1" as="geometry">
            <mxPoint x="6872.85" y="1710" as="targetPoint" />
          </mxGeometry>
        </mxCell>
        <mxCell id="UbUL-3o23nfrx7GC4o43-353" value="" style="ellipse;whiteSpace=wrap;html=1;" vertex="1" parent="1">
          <mxGeometry x="6590" y="2330" width="1070" height="810" as="geometry" />
        </mxCell>
        <mxCell id="UbUL-3o23nfrx7GC4o43-354" style="edgeStyle=none;shape=link;rounded=0;orthogonalLoop=1;jettySize=auto;html=1;exitX=1;exitY=0.5;exitDx=0;exitDy=0;entryX=0;entryY=0.5;entryDx=0;entryDy=0;" edge="1" parent="1" source="UbUL-3o23nfrx7GC4o43-356">
          <mxGeometry relative="1" as="geometry">
            <mxPoint x="6203" y="2710" as="targetPoint" />
          </mxGeometry>
        </mxCell>
        <mxCell id="UbUL-3o23nfrx7GC4o43-355" style="edgeStyle=none;shape=link;rounded=0;orthogonalLoop=1;jettySize=auto;html=1;exitX=0.5;exitY=0;exitDx=0;exitDy=0;entryX=0.5;entryY=1;entryDx=0;entryDy=0;" edge="1" parent="1" source="UbUL-3o23nfrx7GC4o43-356" target="UbUL-3o23nfrx7GC4o43-369">
          <mxGeometry relative="1" as="geometry" />
        </mxCell>
        <mxCell id="UbUL-3o23nfrx7GC4o43-356" value="&lt;font style=&quot;font-size: 19px;&quot;&gt;Wireless Router&lt;/font&gt;" style="image;html=1;image=img/lib/clip_art/networking/Wireless_Router_128x128.png" vertex="1" parent="1">
          <mxGeometry x="5800" y="2210" width="160" height="160" as="geometry" />
        </mxCell>
        <mxCell id="UbUL-3o23nfrx7GC4o43-357" style="edgeStyle=none;shape=link;rounded=0;orthogonalLoop=1;jettySize=auto;html=1;exitX=1;exitY=0.5;exitDx=0;exitDy=0;entryX=-0.001;entryY=0.659;entryDx=0;entryDy=0;entryPerimeter=0;" edge="1" parent="1" target="UbUL-3o23nfrx7GC4o43-356">
          <mxGeometry relative="1" as="geometry">
            <mxPoint x="5530" y="2440" as="sourcePoint" />
          </mxGeometry>
        </mxCell>
        <mxCell id="UbUL-3o23nfrx7GC4o43-358" value="&lt;span style=&quot;font-size: 60px;&quot;&gt;Customer services&lt;/span&gt;" style="text;html=1;align=center;verticalAlign=middle;whiteSpace=wrap;rounded=0;" vertex="1" parent="1">
          <mxGeometry x="6120" y="2250" width="200" height="100" as="geometry" />
        </mxCell>
        <mxCell id="UbUL-3o23nfrx7GC4o43-359" value="PC" style="image;html=1;image=img/lib/clip_art/computers/Monitor_Tower_128x128.png;shadow=0;strokeColor=#000000;fillColor=#FFFFFF;gradientColor=none;fontSize=18;fontColor=#F08705;fontStyle=0" vertex="1" parent="1">
          <mxGeometry x="7150" y="2630" width="160" height="160" as="geometry" />
        </mxCell>
        <mxCell id="UbUL-3o23nfrx7GC4o43-360" style="edgeStyle=none;shape=link;rounded=0;orthogonalLoop=1;jettySize=auto;html=1;exitX=0.25;exitY=1;exitDx=0;exitDy=0;entryX=0.5;entryY=0;entryDx=0;entryDy=0;" edge="1" parent="1" target="UbUL-3o23nfrx7GC4o43-362">
          <mxGeometry relative="1" as="geometry">
            <mxPoint x="7020.571040124518" y="2501.651472765385" as="sourcePoint" />
          </mxGeometry>
        </mxCell>
        <mxCell id="UbUL-3o23nfrx7GC4o43-361" style="edgeStyle=none;shape=link;rounded=0;orthogonalLoop=1;jettySize=auto;html=1;exitX=1;exitY=1;exitDx=0;exitDy=0;entryX=0.5;entryY=0;entryDx=0;entryDy=0;" edge="1" parent="1" target="UbUL-3o23nfrx7GC4o43-359">
          <mxGeometry relative="1" as="geometry">
            <mxPoint x="7102.144900774272" y="2492.347931959501" as="sourcePoint" />
          </mxGeometry>
        </mxCell>
        <mxCell id="UbUL-3o23nfrx7GC4o43-362" value="PC" style="image;html=1;image=img/lib/clip_art/computers/Monitor_Tower_128x128.png;shadow=0;strokeColor=#000000;fillColor=#FFFFFF;gradientColor=none;fontSize=18;fontColor=#F08705;fontStyle=0" vertex="1" parent="1">
          <mxGeometry x="6850" y="2630" width="160" height="160" as="geometry" />
        </mxCell>
        <mxCell id="UbUL-3o23nfrx7GC4o43-363" style="edgeStyle=none;shape=link;rounded=0;orthogonalLoop=1;jettySize=auto;html=1;exitX=0.5;exitY=1;exitDx=0;exitDy=0;" edge="1" parent="1" source="UbUL-3o23nfrx7GC4o43-364">
          <mxGeometry relative="1" as="geometry">
            <mxPoint x="6870" y="1710" as="targetPoint" />
          </mxGeometry>
        </mxCell>
        <mxCell id="UbUL-3o23nfrx7GC4o43-364" value="&lt;font style=&quot;font-size: 30px;&quot;&gt;Firewall&lt;/font&gt;" style="image;html=1;image=img/lib/clip_art/networking/Firewall_02_128x128.png" vertex="1" parent="1">
          <mxGeometry x="6780" y="1440.5" width="160" height="169" as="geometry" />
        </mxCell>
        <mxCell id="UbUL-3o23nfrx7GC4o43-365" style="edgeStyle=none;shape=link;rounded=0;orthogonalLoop=1;jettySize=auto;html=1;exitX=0;exitY=0;exitDx=0;exitDy=0;" edge="1" parent="1">
          <mxGeometry relative="1" as="geometry">
            <mxPoint x="5562.35" y="1619" as="sourcePoint" />
            <mxPoint x="5562.35" y="1619" as="targetPoint" />
          </mxGeometry>
        </mxCell>
        <mxCell id="UbUL-3o23nfrx7GC4o43-366" style="edgeStyle=none;shape=link;rounded=0;orthogonalLoop=1;jettySize=auto;html=1;exitX=0.5;exitY=1;exitDx=0;exitDy=0;entryX=0.5;entryY=0;entryDx=0;entryDy=0;" edge="1" parent="1" source="UbUL-3o23nfrx7GC4o43-367" target="UbUL-3o23nfrx7GC4o43-374">
          <mxGeometry relative="1" as="geometry" />
        </mxCell>
        <mxCell id="UbUL-3o23nfrx7GC4o43-367" value="&lt;font style=&quot;font-size: 30px;&quot;&gt;Wireless router&lt;/font&gt;" style="image;html=1;image=img/lib/clip_art/networking/Wireless_Router_128x128.png" vertex="1" parent="1">
          <mxGeometry x="7360" y="1165" width="215" height="215" as="geometry" />
        </mxCell>
        <mxCell id="UbUL-3o23nfrx7GC4o43-368" value="&lt;font style=&quot;font-size: 40px;&quot;&gt;Customer&lt;/font&gt;" style="ellipse;whiteSpace=wrap;html=1;" vertex="1" parent="1">
          <mxGeometry x="7130" y="1870" width="290" height="140" as="geometry" />
        </mxCell>
        <mxCell id="UbUL-3o23nfrx7GC4o43-369" value="&lt;div&gt;&lt;span style=&quot;font-size: 20px;&quot;&gt;Switch&lt;/span&gt;&lt;/div&gt;" style="image;html=1;image=img/lib/clip_art/networking/Switch_128x128.png" vertex="1" parent="1">
          <mxGeometry x="5820" y="1860" width="220" height="220" as="geometry" />
        </mxCell>
        <mxCell id="UbUL-3o23nfrx7GC4o43-370" value="&lt;div&gt;&lt;span style=&quot;font-size: 20px;&quot;&gt;Switch&lt;/span&gt;&lt;/div&gt;" style="image;html=1;image=img/lib/clip_art/networking/Switch_128x128.png" vertex="1" parent="1">
          <mxGeometry x="6960" y="2370" width="220" height="220" as="geometry" />
        </mxCell>
        <mxCell id="UbUL-3o23nfrx7GC4o43-371" style="edgeStyle=none;shape=link;rounded=0;orthogonalLoop=1;jettySize=auto;html=1;exitX=0.5;exitY=1;exitDx=0;exitDy=0;entryX=0.5;entryY=0;entryDx=0;entryDy=0;" edge="1" parent="1" source="UbUL-3o23nfrx7GC4o43-372" target="UbUL-3o23nfrx7GC4o43-364">
          <mxGeometry relative="1" as="geometry" />
        </mxCell>
        <mxCell id="UbUL-3o23nfrx7GC4o43-372" value="&lt;font style=&quot;font-size: 30px;&quot;&gt;Router&lt;/font&gt;" style="image;html=1;image=img/lib/clip_art/networking/Router_128x128.png" vertex="1" parent="1">
          <mxGeometry x="6769.9400000000005" y="1102" width="204.82" height="185" as="geometry" />
        </mxCell>
        <mxCell id="UbUL-3o23nfrx7GC4o43-373" style="edgeStyle=none;shape=link;rounded=0;orthogonalLoop=1;jettySize=auto;html=1;exitX=0.5;exitY=1;exitDx=0;exitDy=0;entryX=0.5;entryY=0;entryDx=0;entryDy=0;" edge="1" parent="1" source="UbUL-3o23nfrx7GC4o43-374" target="UbUL-3o23nfrx7GC4o43-368">
          <mxGeometry relative="1" as="geometry" />
        </mxCell>
        <mxCell id="UbUL-3o23nfrx7GC4o43-374" value="&lt;font style=&quot;font-size: 30px;&quot;&gt;Firewall&lt;/font&gt;" style="image;html=1;image=img/lib/clip_art/networking/Firewall_02_128x128.png" vertex="1" parent="1">
          <mxGeometry x="7260" y="1500" width="160" height="169" as="geometry" />
        </mxCell>
        <mxCell id="UbUL-3o23nfrx7GC4o43-376" style="edgeStyle=none;shape=link;rounded=0;orthogonalLoop=1;jettySize=auto;html=1;exitX=0.31;exitY=0.8;exitDx=0;exitDy=0;exitPerimeter=0;entryX=0.5;entryY=0;entryDx=0;entryDy=0;" edge="1" parent="1" source="UbUL-3o23nfrx7GC4o43-378" target="UbUL-3o23nfrx7GC4o43-372">
          <mxGeometry relative="1" as="geometry" />
        </mxCell>
        <mxCell id="UbUL-3o23nfrx7GC4o43-377" style="edgeStyle=none;shape=link;rounded=0;orthogonalLoop=1;jettySize=auto;html=1;exitX=0.8;exitY=0.8;exitDx=0;exitDy=0;exitPerimeter=0;" edge="1" parent="1" source="UbUL-3o23nfrx7GC4o43-378" target="UbUL-3o23nfrx7GC4o43-367">
          <mxGeometry relative="1" as="geometry" />
        </mxCell>
        <mxCell id="UbUL-3o23nfrx7GC4o43-378" value="&lt;font style=&quot;font-size: 40px;&quot;&gt;Internet&lt;/font&gt;" style="ellipse;shape=cloud;whiteSpace=wrap;html=1;" vertex="1" parent="1">
          <mxGeometry x="6800" y="649" width="580" height="381" as="geometry" />
        </mxCell>
        <mxCell id="UbUL-3o23nfrx7GC4o43-382" value="PC" style="image;html=1;image=img/lib/clip_art/computers/Monitor_Tower_128x128.png;shadow=0;strokeColor=#000000;fillColor=#FFFFFF;gradientColor=none;fontSize=18;fontColor=#F08705;fontStyle=0" vertex="1" parent="1">
          <mxGeometry x="5400" y="2390" width="160" height="160" as="geometry" />
        </mxCell>
        <mxCell id="UbUL-3o23nfrx7GC4o43-385" style="edgeStyle=none;shape=link;rounded=0;orthogonalLoop=1;jettySize=auto;html=1;exitX=1;exitY=0.5;exitDx=0;exitDy=0;entryX=0;entryY=0.5;entryDx=0;entryDy=0;" edge="1" parent="1" source="UbUL-3o23nfrx7GC4o43-383" target="UbUL-3o23nfrx7GC4o43-384">
          <mxGeometry relative="1" as="geometry" />
        </mxCell>
        <mxCell id="UbUL-3o23nfrx7GC4o43-383" value="PC" style="image;html=1;image=img/lib/clip_art/computers/Monitor_Tower_128x128.png;shadow=0;strokeColor=#000000;fillColor=#FFFFFF;gradientColor=none;fontSize=18;fontColor=#F08705;fontStyle=0" vertex="1" parent="1">
          <mxGeometry x="5710" y="2700" width="160" height="160" as="geometry" />
        </mxCell>
        <mxCell id="UbUL-3o23nfrx7GC4o43-384" value="PC" style="image;html=1;image=img/lib/clip_art/computers/Monitor_Tower_128x128.png;shadow=0;strokeColor=#000000;fillColor=#FFFFFF;gradientColor=none;fontSize=18;fontColor=#F08705;fontStyle=0" vertex="1" parent="1">
          <mxGeometry x="6123" y="2640" width="160" height="160" as="geometry" />
        </mxCell>
        <mxCell id="UbUL-3o23nfrx7GC4o43-387" value="&lt;font style=&quot;font-size: 60px;&quot;&gt;IT&lt;/font&gt;" style="text;html=1;align=center;verticalAlign=middle;whiteSpace=wrap;rounded=0;" vertex="1" parent="1">
          <mxGeometry x="2950" y="2100" width="210" height="140" as="geometry" />
        </mxCell>
        <mxCell id="UbUL-3o23nfrx7GC4o43-388" value="&lt;font style=&quot;font-size: 30px;&quot;&gt;Sales Department&lt;/font&gt;" style="text;html=1;align=center;verticalAlign=middle;whiteSpace=wrap;rounded=0;" vertex="1" parent="1">
          <mxGeometry x="7000" y="2890" width="240" height="90" as="geometry" />
        </mxCell>
        <mxCell id="UbUL-3o23nfrx7GC4o43-389" value="&lt;font style=&quot;font-size: 30px;&quot;&gt;Router&lt;/font&gt;" style="image;html=1;image=img/lib/clip_art/networking/Router_128x128.png" vertex="1" parent="1">
          <mxGeometry x="6068" y="-820" width="270" height="270" as="geometry" />
        </mxCell>
        <mxCell id="UbUL-3o23nfrx7GC4o43-391" style="edgeStyle=none;shape=link;rounded=0;orthogonalLoop=1;jettySize=auto;html=1;exitX=0.5;exitY=1;exitDx=0;exitDy=0;entryX=0.5;entryY=0;entryDx=0;entryDy=0;" edge="1" parent="1" source="UbUL-3o23nfrx7GC4o43-390" target="UbUL-3o23nfrx7GC4o43-389">
          <mxGeometry relative="1" as="geometry" />
        </mxCell>
        <mxCell id="UbUL-3o23nfrx7GC4o43-390" value="&lt;font style=&quot;font-size: 30px;&quot;&gt;Firewall&lt;/font&gt;&lt;div&gt;&lt;br&gt;&lt;/div&gt;" style="image;html=1;image=img/lib/clip_art/networking/Firewall_02_128x128.png" vertex="1" parent="1">
          <mxGeometry x="6093" y="-1230" width="220" height="220" as="geometry" />
        </mxCell>
        <mxCell id="UbUL-3o23nfrx7GC4o43-395" style="edgeStyle=none;shape=link;rounded=0;orthogonalLoop=1;jettySize=auto;html=1;exitX=1;exitY=1;exitDx=0;exitDy=0;" edge="1" parent="1" source="UbUL-3o23nfrx7GC4o43-392" target="UbUL-3o23nfrx7GC4o43-390">
          <mxGeometry relative="1" as="geometry" />
        </mxCell>
        <mxCell id="UbUL-3o23nfrx7GC4o43-392" value="&lt;font style=&quot;font-size: 60px;&quot;&gt;Web Hosting Services&lt;/font&gt;" style="ellipse;whiteSpace=wrap;html=1;" vertex="1" parent="1">
          <mxGeometry x="5542" y="-1670" width="418" height="300" as="geometry" />
        </mxCell>
        <mxCell id="UbUL-3o23nfrx7GC4o43-397" style="edgeStyle=none;shape=link;rounded=0;orthogonalLoop=1;jettySize=auto;html=1;exitX=0.5;exitY=1;exitDx=0;exitDy=0;entryX=1;entryY=0.25;entryDx=0;entryDy=0;" edge="1" parent="1" source="UbUL-3o23nfrx7GC4o43-393" target="UbUL-3o23nfrx7GC4o43-390">
          <mxGeometry relative="1" as="geometry" />
        </mxCell>
        <mxCell id="UbUL-3o23nfrx7GC4o43-393" value="&lt;font style=&quot;font-size: 30px;&quot;&gt;Email Sever&lt;/font&gt;" style="image;html=1;image=img/lib/clip_art/computers/Server_Rack_128x128.png;shadow=0;strokeColor=#000000;fillColor=#FFFFFF;gradientColor=none;fontSize=18;fontColor=#F08705;fontStyle=0" vertex="1" parent="1">
          <mxGeometry x="6519.94" y="-1657.5" width="250" height="250" as="geometry" />
        </mxCell>
        <mxCell id="UbUL-3o23nfrx7GC4o43-396" style="edgeStyle=none;shape=link;rounded=0;orthogonalLoop=1;jettySize=auto;html=1;exitX=0.5;exitY=1;exitDx=0;exitDy=0;entryX=0.75;entryY=0;entryDx=0;entryDy=0;" edge="1" parent="1" source="UbUL-3o23nfrx7GC4o43-394" target="UbUL-3o23nfrx7GC4o43-390">
          <mxGeometry relative="1" as="geometry" />
        </mxCell>
        <mxCell id="UbUL-3o23nfrx7GC4o43-394" value="&lt;font style=&quot;font-size: 30px;&quot;&gt;Storage Services&lt;/font&gt;" style="image;html=1;image=img/lib/clip_art/computers/Server_Rack_128x128.png;shadow=0;strokeColor=#000000;fillColor=#FFFFFF;gradientColor=none;fontSize=18;fontColor=#F08705;fontStyle=0" vertex="1" parent="1">
          <mxGeometry x="6150" y="-2010" width="250" height="250" as="geometry" />
        </mxCell>
        <mxCell id="UbUL-3o23nfrx7GC4o43-398" value="&lt;font style=&quot;font-size: 40px;&quot;&gt;Internet&lt;/font&gt;" style="ellipse;shape=cloud;whiteSpace=wrap;html=1;" vertex="1" parent="1">
          <mxGeometry x="5180" y="-1190" width="580" height="519" as="geometry" />
        </mxCell>
        <mxCell id="UbUL-3o23nfrx7GC4o43-399" style="edgeStyle=none;shape=link;rounded=0;orthogonalLoop=1;jettySize=auto;html=1;exitX=0;exitY=0.5;exitDx=0;exitDy=0;entryX=0.96;entryY=0.7;entryDx=0;entryDy=0;entryPerimeter=0;" edge="1" parent="1" source="UbUL-3o23nfrx7GC4o43-389" target="UbUL-3o23nfrx7GC4o43-398">
          <mxGeometry relative="1" as="geometry" />
        </mxCell>
        <mxCell id="UbUL-3o23nfrx7GC4o43-401" value="&lt;font style=&quot;font-size: 60px;&quot;&gt;Public cloud&lt;/font&gt;" style="text;html=1;align=center;verticalAlign=middle;whiteSpace=wrap;rounded=0;" vertex="1" parent="1">
          <mxGeometry x="6730" y="-1090" width="600" height="230" as="geometry" />
        </mxCell>
        <mxCell id="UbUL-3o23nfrx7GC4o43-402" style="edgeStyle=none;shape=link;rounded=0;orthogonalLoop=1;jettySize=auto;html=1;exitX=0.5;exitY=1;exitDx=0;exitDy=0;entryX=0.546;entryY=0.02;entryDx=0;entryDy=0;entryPerimeter=0;" edge="1" parent="1" source="UbUL-3o23nfrx7GC4o43-311" target="UbUL-3o23nfrx7GC4o43-327">
          <mxGeometry relative="1" as="geometry" />
        </mxCell>
        <mxCell id="UbUL-3o23nfrx7GC4o43-404" style="edgeStyle=none;shape=link;rounded=0;orthogonalLoop=1;jettySize=auto;html=1;exitX=1;exitY=0.5;exitDx=0;exitDy=0;entryX=0.013;entryY=0.37;entryDx=0;entryDy=0;entryPerimeter=0;" edge="1" parent="1" source="UbUL-3o23nfrx7GC4o43-311" target="UbUL-3o23nfrx7GC4o43-400">
          <mxGeometry relative="1" as="geometry" />
        </mxCell>
      </root>
    </mxGraphModel>
  </diagram>
</mxfile>
